<svg width="52" height="52" viewBox="0 0 52 52" fill="none" xmlns="http://www.w3.org/2000/svg">
<circle cx="26" cy="26" r="25" fill="#D19A1D" stroke="#FEFEFE" stroke-width="2"/>
<path d="M35.3103 20.8787L31.1216 16.689C30.9823 16.5496 30.8169 16.4391 30.6349 16.3637C30.4529 16.2883 30.2578 16.2495 30.0608 16.2495C29.8638 16.2495 29.6687 16.2883 29.4867 16.3637C29.3047 16.4391 29.1393 16.5496 29 16.689L17.4397 28.2502C17.2998 28.389 17.1889 28.5542 17.1134 28.7362C17.0379 28.9183 16.9994 29.1135 17 29.3105V33.5002C17 33.898 17.158 34.2796 17.4393 34.5609C17.7207 34.8422 18.1022 35.0002 18.5 35.0002H22.6897C22.8868 35.0009 23.082 34.9623 23.264 34.8868C23.446 34.8113 23.6112 34.7004 23.75 34.5605L35.3103 23.0002C35.4496 22.8609 35.5602 22.6956 35.6356 22.5135C35.711 22.3315 35.7498 22.1365 35.7498 21.9394C35.7498 21.7424 35.711 21.5473 35.6356 21.3653C35.5602 21.1833 35.4496 21.018 35.3103 20.8787ZM22.6897 33.5002H18.5V29.3105L26.75 21.0605L30.9397 25.2502L22.6897 33.5002ZM32 24.189L27.8103 20.0002L30.0603 17.7502L34.25 21.939L32 24.189Z" fill="white"/>
</svg>
