<svg width="32" height="32" viewBox="0 0 32 32" fill="none" xmlns="http://www.w3.org/2000/svg">
<path d="M30.5 6.99974V12.9997C30.5 13.3976 30.3419 13.7791 30.0606 14.0604C29.7793 14.3417 29.3978 14.4997 29 14.4997H23C22.6021 14.4997 22.2206 14.3417 21.9393 14.0604C21.658 13.7791 21.5 13.3976 21.5 12.9997C21.5 12.6019 21.658 12.2204 21.9393 11.9391C22.2206 11.6578 22.6021 11.4997 23 11.4997H25.1375L22.7625 9.32724C22.7462 9.31224 22.73 9.29724 22.715 9.28099C21.6137 8.18043 20.2589 7.36739 18.7697 6.91341C17.2804 6.45942 15.7024 6.37841 14.1746 6.67749C12.6467 6.97656 11.2157 7.64657 10.0075 8.62856C8.79938 9.61054 7.85109 10.8744 7.2461 12.3089C6.64111 13.7435 6.39795 15.3047 6.53803 16.8553C6.67811 18.4059 7.19713 19.8983 8.04943 21.2012C8.90172 22.504 10.0612 23.5775 11.4257 24.3271C12.7903 25.0766 14.3182 25.4793 15.875 25.4997H16C18.4249 25.5056 20.759 24.5782 22.5187 22.9097C22.808 22.6364 23.194 22.4892 23.5918 22.5004C23.9896 22.5117 24.3666 22.6805 24.64 22.9697C24.9133 23.259 25.0605 23.645 25.0493 24.0428C25.038 24.4406 24.8692 24.8176 24.58 25.091C22.2636 27.2865 19.1915 28.507 16 28.4997H15.8287C13.7825 28.4709 11.7747 27.9401 9.98156 26.954C8.18842 25.968 6.6648 24.5567 5.54448 22.8442C4.42417 21.1317 3.74142 19.1704 3.55619 17.1324C3.37097 15.0944 3.68893 13.0421 4.48216 11.1557C5.27539 9.26929 6.51962 7.60648 8.10561 6.31328C9.6916 5.02008 11.5708 4.13603 13.5783 3.73877C15.5858 3.34151 17.6601 3.44318 19.619 4.03486C21.578 4.62654 23.3618 5.69013 24.8137 7.13224L27.5 9.58974V6.99974C27.5 6.60191 27.658 6.22038 27.9393 5.93908C28.2206 5.65777 28.6021 5.49974 29 5.49974C29.3978 5.49974 29.7793 5.65777 30.0606 5.93908C30.3419 6.22038 30.5 6.60191 30.5 6.99974Z" fill="black"/>
</svg>
