<svg width="62" height="34" viewBox="0 0 62 34" fill="none" xmlns="http://www.w3.org/2000/svg">
<path d="M0.555313 33V1H4.87531V29.16H12.0153V33H0.555313ZM20.81 33.34C18.41 33.34 16.6767 32.8333 15.61 31.82C14.5567 30.7933 14.01 29.0933 13.97 26.72C13.93 25.12 13.9033 23.5067 13.89 21.88C13.8767 20.2533 13.87 18.6267 13.87 17C13.87 15.36 13.8767 13.7333 13.89 12.12C13.9033 10.4933 13.93 8.87333 13.97 7.26C14.01 4.9 14.5567 3.21333 15.61 2.2C16.6767 1.17333 18.41 0.659998 20.81 0.659998C23.21 0.659998 24.93 1.17333 25.97 2.2C27.0233 3.21333 27.5767 4.9 27.63 7.26C27.6833 8.88667 27.7167 10.5133 27.73 12.14C27.7567 13.7667 27.77 15.3933 27.77 17.02C27.77 18.6467 27.7567 20.2733 27.73 21.9C27.7167 23.5133 27.6833 25.12 27.63 26.72C27.5767 29.0933 27.0233 30.7933 25.97 31.82C24.93 32.8333 23.21 33.34 20.81 33.34ZM20.81 29.76C21.6633 29.76 22.29 29.58 22.69 29.22C23.09 28.8467 23.2967 28.2667 23.31 27.48C23.3767 25.8267 23.4167 24.1133 23.43 22.34C23.4567 20.5533 23.47 18.7533 23.47 16.94C23.47 15.1267 23.4567 13.34 23.43 11.58C23.4033 9.82 23.3633 8.12667 23.31 6.5C23.2967 5.71333 23.0833 5.14 22.67 4.78C22.27 4.40667 21.65 4.22 20.81 4.22C19.97 4.22 19.3433 4.40667 18.93 4.78C18.53 5.14 18.3167 5.71333 18.29 6.5C18.2367 8.12667 18.19 9.82 18.15 11.58C18.1233 13.34 18.11 15.1267 18.11 16.94C18.1233 18.7533 18.1433 20.5533 18.17 22.34C18.1967 24.1133 18.2367 25.8267 18.29 27.48C18.3167 28.2667 18.53 28.8467 18.93 29.22C19.3433 29.58 19.97 29.76 20.81 29.76ZM37.9194 33.34C36.2927 33.34 34.986 33.12 33.9994 32.68C33.026 32.2267 32.306 31.5133 31.8394 30.54C31.386 29.5533 31.1327 28.2667 31.0794 26.68C31.0394 25.2133 31.0127 23.6667 30.9994 22.04C30.986 20.4 30.9794 18.7467 30.9794 17.08C30.9794 15.4 30.986 13.7533 30.9994 12.14C31.0127 10.5133 31.0394 8.97333 31.0794 7.52C31.146 5.86666 31.4127 4.54 31.8794 3.54C32.346 2.52667 33.066 1.79333 34.0394 1.34C35.026 0.886665 36.3127 0.659998 37.8994 0.659998C40.1794 0.659998 41.8394 1.17333 42.8794 2.2C43.9327 3.22667 44.526 4.92 44.6594 7.28C44.6994 8.10667 44.7194 8.98667 44.7194 9.92C44.7194 10.84 44.6994 11.7133 44.6594 12.54H40.3394C40.3794 11.6333 40.3994 10.6333 40.3994 9.54C40.3994 8.43333 40.3794 7.42667 40.3394 6.52C40.2994 5.74666 40.0727 5.17333 39.6594 4.8C39.2594 4.41333 38.6727 4.22 37.8994 4.22C37.086 4.22 36.4727 4.41333 36.0594 4.8C35.6594 5.17333 35.4394 5.74666 35.3994 6.52C35.346 8.18667 35.2994 9.9 35.2594 11.66C35.2327 13.42 35.2194 15.1933 35.2194 16.98C35.2194 18.7667 35.2327 20.54 35.2594 22.3C35.2994 24.06 35.346 25.7733 35.3994 27.44C35.4394 28.2267 35.6594 28.8133 36.0594 29.2C36.4727 29.5733 37.0927 29.76 37.9194 29.76C38.746 29.76 39.386 29.5733 39.8394 29.2C40.2927 28.8133 40.5394 28.2267 40.5794 27.44C40.5927 26.9333 40.5994 26.3733 40.5994 25.76C40.6127 25.1333 40.6127 24.52 40.5994 23.92C40.5994 23.3067 40.5927 22.74 40.5794 22.22H38.1394V18.44H44.7994C44.8394 19.56 44.8527 20.8267 44.8394 22.24C44.8394 23.6533 44.8127 25.1333 44.7594 26.68C44.666 29.0533 44.086 30.76 43.0194 31.8C41.966 32.8267 40.266 33.34 37.9194 33.34ZM54.7553 33.34C52.3553 33.34 50.622 32.8333 49.5553 31.82C48.502 30.7933 47.9553 29.0933 47.9153 26.72C47.8753 25.12 47.8486 23.5067 47.8353 21.88C47.822 20.2533 47.8153 18.6267 47.8153 17C47.8153 15.36 47.822 13.7333 47.8353 12.12C47.8486 10.4933 47.8753 8.87333 47.9153 7.26C47.9553 4.9 48.502 3.21333 49.5553 2.2C50.622 1.17333 52.3553 0.659998 54.7553 0.659998C57.1553 0.659998 58.8753 1.17333 59.9153 2.2C60.9686 3.21333 61.522 4.9 61.5753 7.26C61.6286 8.88667 61.662 10.5133 61.6753 12.14C61.702 13.7667 61.7153 15.3933 61.7153 17.02C61.7153 18.6467 61.702 20.2733 61.6753 21.9C61.662 23.5133 61.6286 25.12 61.5753 26.72C61.522 29.0933 60.9686 30.7933 59.9153 31.82C58.8753 32.8333 57.1553 33.34 54.7553 33.34ZM54.7553 29.76C55.6086 29.76 56.2353 29.58 56.6353 29.22C57.0353 28.8467 57.242 28.2667 57.2553 27.48C57.322 25.8267 57.362 24.1133 57.3753 22.34C57.402 20.5533 57.4153 18.7533 57.4153 16.94C57.4153 15.1267 57.402 13.34 57.3753 11.58C57.3486 9.82 57.3086 8.12667 57.2553 6.5C57.242 5.71333 57.0286 5.14 56.6153 4.78C56.2153 4.40667 55.5953 4.22 54.7553 4.22C53.9153 4.22 53.2886 4.40667 52.8753 4.78C52.4753 5.14 52.262 5.71333 52.2353 6.5C52.182 8.12667 52.1353 9.82 52.0953 11.58C52.0686 13.34 52.0553 15.1267 52.0553 16.94C52.0686 18.7533 52.0886 20.5533 52.1153 22.34C52.142 24.1133 52.182 25.8267 52.2353 27.48C52.262 28.2667 52.4753 28.8467 52.8753 29.22C53.2886 29.58 53.9153 29.76 54.7553 29.76Z" fill="#D19A1D"/>
</svg>
