<svg width="1280" height="130" viewBox="0 0 1280 130" fill="none" xmlns="http://www.w3.org/2000/svg">
<path d="M305.5 0V129.4H307.5V0H305.5Z" fill="#172624" fill-opacity="0.2" mask="url(#path-1-inside-1_8_3216)"/>
<g clip-path="url(#clip0_8_3216)">
<path d="M93.8517 54.0547C86.734 54.0547 81.1725 59.4579 81.1725 66.6912C81.1725 73.9246 86.5934 79.2815 93.8517 79.2815C101.11 79.2815 106.625 73.8321 106.625 66.645C106.625 59.5041 101.204 54.0547 93.8517 54.0547ZM93.8997 74.0687C89.8464 74.0687 86.8762 70.9206 86.8762 66.693C86.8762 62.4174 89.7984 59.2711 93.8517 59.2711C97.953 59.2711 100.921 62.4654 100.921 66.693C100.921 70.9206 97.953 74.0687 93.8997 74.0687ZM108.18 59.5521H111.715V78.8138H117.371V54.5242H108.18V59.5521ZM66.9387 59.2693C69.9089 59.2693 72.2654 61.1013 73.1601 63.826H79.1467C78.0618 58.0012 73.2544 54.0547 66.9867 54.0547C59.869 54.0547 54.3075 59.4579 54.3075 66.693C54.3075 73.9281 59.7285 79.2833 66.9867 79.2833C73.1138 79.2833 78.0155 75.3367 79.1004 69.464H73.1601C72.3117 72.1887 69.9551 74.0687 66.985 74.0687C62.8836 74.0687 60.0095 70.9206 60.0095 66.693C60.0113 62.4174 62.8392 59.2693 66.9387 59.2693ZM215.643 64.3435L211.495 63.7335C209.516 63.4525 208.102 62.7944 208.102 61.2436C208.102 59.5521 209.941 58.7073 212.438 58.7073C215.172 58.7073 216.916 59.8812 217.293 61.8073H222.761C222.147 56.9217 218.377 54.0564 212.58 54.0564C206.594 54.0564 202.635 57.1102 202.635 61.4321C202.635 65.5654 205.227 67.9629 210.458 68.7134L214.606 69.3235C216.634 69.6045 217.765 70.4048 217.765 71.9077C217.765 73.8339 215.785 74.6324 213.052 74.6324C209.704 74.6324 207.819 73.2701 207.536 71.2034H201.975C202.494 75.9485 206.217 79.2833 213.003 79.2833C219.179 79.2833 223.278 76.4643 223.278 71.6249C223.278 67.303 220.31 65.0478 215.643 64.3435ZM114.543 44.5181C112.469 44.5181 110.913 46.021 110.913 48.0876C110.913 50.1543 112.468 51.6572 114.543 51.6572C116.617 51.6572 118.173 50.1543 118.173 48.0876C118.173 46.021 116.617 44.5181 114.543 44.5181ZM197.544 62.8407C197.544 57.5797 194.34 54.0564 187.552 54.0564C181.143 54.0564 177.561 57.2987 176.853 62.2786H182.462C182.745 60.3525 184.253 58.7553 187.458 58.7553C190.334 58.7553 191.748 60.0234 191.748 61.5744C191.748 63.5948 189.155 64.1106 185.95 64.4396C181.614 64.9091 176.241 66.412 176.241 72.05C176.241 76.4199 179.494 79.2371 184.679 79.2371C188.732 79.2371 191.277 77.5457 192.55 74.8672C192.739 77.2629 194.53 78.8138 197.029 78.8138H200.328V73.7876H197.546V62.8407H197.544ZM191.983 68.9482C191.983 72.1905 189.155 74.5862 185.713 74.5862C183.592 74.5862 181.801 73.6933 181.801 71.8152C181.801 69.4195 184.676 68.7614 187.316 68.4805C189.861 68.2457 191.275 67.6819 191.983 66.6005V68.9482ZM161.959 54.0547C158.801 54.0547 156.161 55.3708 154.276 57.578V44.2833H148.62V78.8138H154.182V75.6195C156.067 77.9209 158.755 79.2833 161.959 79.2833C168.746 79.2833 173.884 73.9281 173.884 66.693C173.884 59.4579 168.652 54.0547 161.959 54.0547ZM161.111 74.0687C157.058 74.0687 154.088 70.9206 154.088 66.693C154.088 62.4654 157.104 59.2711 161.157 59.2711C165.259 59.2711 168.132 62.4192 168.132 66.693C168.132 70.9206 165.164 74.0687 161.111 74.0687ZM135.092 54.0547C131.416 54.0547 129.012 55.5575 127.598 57.6722V54.5242H121.988V78.812H127.644V65.6117C127.644 61.8998 130 59.2693 133.488 59.2693C136.741 59.2693 138.767 61.5708 138.767 64.9073V78.8138H144.423V64.4858C144.425 58.3765 141.268 54.0547 135.092 54.0547ZM250.239 65.8945C250.239 58.9421 245.149 54.0564 238.314 54.0564C231.056 54.0564 225.729 59.5059 225.729 66.693C225.729 74.2572 231.433 79.2833 238.409 79.2833C244.301 79.2833 248.919 75.8063 250.097 70.8744H244.204C243.356 73.0353 241.282 74.2572 238.501 74.2572C234.871 74.2572 232.137 72.002 231.525 68.0554H250.237V65.8945H250.239ZM231.856 64.0145C232.753 60.6317 235.297 58.9884 238.22 58.9884C241.425 58.9884 243.876 60.8202 244.441 64.0145H231.856Z" fill="#737762"/>
</g>
<path d="M630 0V129.4H632V0H630Z" fill="#172624" fill-opacity="0.2" mask="url(#path-4-inside-2_8_3216)"/>
<g clip-path="url(#clip1_8_3216)">
<path d="M424.09 50.1357H435.205C442.292 50.1357 448.146 54.2359 448.146 63.5976V65.5648C448.146 74.9977 442.671 79.2401 435.419 79.2401H424.09V50.1357ZM430.299 55.4209V73.9311H435.063C439.092 73.9311 441.794 71.3004 441.794 65.4463V63.9058C441.794 58.0517 438.95 55.4209 434.85 55.4209H430.299ZM451.44 55.7053H456.418L457.223 61.1802C458.171 57.4592 460.589 55.4683 464.974 55.4683H466.514V61.749H463.954C458.906 61.749 457.674 63.5028 457.674 68.48V79.3112H451.535V55.7053H451.44ZM467.747 67.9823V67.3187C467.747 59.4263 472.795 55.1128 479.668 55.1128C486.683 55.1128 491.589 59.4263 491.589 67.3187V67.9823C491.589 75.7324 486.826 79.9037 479.668 79.9037C472.06 79.8326 467.747 75.7561 467.747 67.9823ZM485.309 67.9112V67.3187C485.309 62.934 483.105 60.3033 479.597 60.3033C476.16 60.3033 473.885 62.7207 473.885 67.3187V67.9112C473.885 72.1536 476.089 74.5711 479.597 74.5711C483.105 74.5 485.309 72.1536 485.309 67.9112ZM494.813 55.7053H499.932L500.525 60.161C501.757 57.1748 504.388 55.1128 508.275 55.1128C514.271 55.1128 518.229 59.4263 518.229 67.4135V68.0771C518.229 75.8272 513.844 79.9274 508.275 79.9274C504.554 79.9274 501.994 78.2447 500.738 75.5428V87.4642H494.742L494.813 55.7053ZM511.996 67.9112V67.3898C511.996 62.697 509.578 60.3744 506.355 60.3744C502.918 60.3744 500.643 63.0051 500.643 67.3898V67.8401C500.643 72.0114 502.847 74.6422 506.284 74.6422C509.815 74.5711 511.996 72.3195 511.996 67.9112ZM527.306 74.9503L526.785 79.2638H521.523V47.813H527.52V59.8766C528.847 56.7956 531.478 55.1128 535.199 55.1128C540.839 55.1839 545.011 59.0708 545.011 66.892V67.6268C545.011 75.448 541.053 79.9274 535.056 79.9274C531.098 79.8326 528.539 78.0077 527.306 74.9503ZM538.706 67.6268V67.0342C538.706 62.7207 536.36 60.3033 533.066 60.3033C529.7 60.3033 527.354 63.0051 527.354 67.1053V67.6268C527.354 72.0114 529.629 74.5711 532.995 74.5711C536.597 74.5711 538.706 72.3195 538.706 67.6268ZM547.642 67.9823V67.3187C547.642 59.4263 552.69 55.1128 559.563 55.1128C566.578 55.1128 571.484 59.4263 571.484 67.3187V67.9823C571.484 75.7324 566.65 79.9037 559.563 79.9037C551.955 79.8326 547.642 75.7561 547.642 67.9823ZM565.251 67.9112V67.3187C565.251 62.934 563.047 60.3033 559.539 60.3033C556.103 60.3033 553.827 62.7207 553.827 67.3187V67.9112C553.827 72.1536 556.032 74.5711 559.539 74.5711C563.071 74.5 565.251 72.1536 565.251 67.9112ZM579.519 67.0342L571.247 55.7053H578.334L583.098 62.7918L587.933 55.7053H594.948L586.558 66.9631L595.398 79.2638H588.454L583.05 71.4426L577.789 79.2638H570.536L579.519 67.0342Z" fill="#737762"/>
<path d="M385.884 50.1358L372.137 58.9051L385.884 67.6744L372.137 76.4436L358.391 67.6269L372.137 58.8577L358.391 50.1358L372.137 41.3666L385.884 50.1358ZM372.066 79.264L385.813 70.4947L399.559 79.264L385.813 88.0332L372.066 79.264ZM385.884 67.6269L399.63 58.8577L385.884 50.1358L399.559 41.3666L413.305 50.1358L399.559 58.9051L413.305 67.6744L399.559 76.4436L385.884 67.6269Z" fill="#737762"/>
</g>
<path d="M954.5 0V129.4H956.5V0H954.5Z" fill="#172624" fill-opacity="0.2" mask="url(#path-8-inside-3_8_3216)"/>
<g clip-path="url(#clip2_8_3216)">
<path d="M768.822 76.9886L770.963 71.9844C773.307 73.7204 776.365 74.6392 779.423 74.6392C781.666 74.6392 783.093 73.7716 783.093 72.4441C783.042 68.7674 769.587 71.6269 769.484 62.3831C769.433 57.6852 773.613 54.0596 779.526 54.0596C783.042 54.0596 786.559 54.928 789.056 56.9198L787.055 62.0308C784.758 60.5535 781.92 59.5235 779.219 59.5235C777.385 59.5235 776.161 60.3912 776.161 61.5154C776.212 65.141 789.77 63.1491 789.923 71.9844C789.923 76.7846 785.845 80.1551 780.034 80.1551C775.754 80.1551 771.829 79.1339 768.821 76.9886H768.822ZM854.073 70.1723C853.533 71.1325 852.747 71.9317 851.796 72.4879C850.845 73.0441 849.762 73.3373 848.661 73.3374C845.227 73.3374 842.443 70.548 842.443 67.1073C842.443 63.6667 845.227 60.8773 848.661 60.8773C849.762 60.8774 850.845 61.1706 851.796 61.7268C852.747 62.283 853.533 63.0822 854.073 64.0424L860.026 60.7384C857.796 56.7539 853.543 54.0596 848.661 54.0596C841.469 54.0596 835.638 59.9007 835.638 67.1073C835.638 74.3132 841.469 80.1551 848.661 80.1551C853.543 80.1551 857.796 77.4608 860.026 73.4763L854.073 70.1723ZM793.785 79.6442H801.227V43.1981H793.786L793.785 79.6442ZM863.784 43.1981V79.6442H871.225V68.725L880.043 79.6442H889.554L878.341 66.6724L888.738 54.5683H879.635L871.225 64.6315V43.1981H863.784ZM824.152 54.5698V57.5324C822.929 55.4893 819.922 54.0596 816.762 54.0596C810.238 54.0596 805.091 59.8306 805.091 67.0818C805.091 74.333 810.238 80.1551 816.762 80.1551C819.922 80.1551 822.929 78.7253 824.152 76.6823V79.6442H831.593V54.5698H824.152ZM824.152 70.2227C823.082 72.0099 820.839 73.3366 818.342 73.3366C814.907 73.3366 812.124 70.548 812.124 67.1073C812.124 63.6667 814.907 60.8773 818.342 60.8773C820.839 60.8773 823.082 62.2559 824.152 64.0936V70.2227Z" fill="#737762"/>
<path d="M729.526 42.3927C727.114 42.3927 725.159 44.3517 725.159 46.7675C725.159 47.3415 725.271 47.9099 725.49 48.4404C725.71 48.9708 726.031 49.453 726.436 49.8592C726.842 50.2654 727.323 50.5879 727.853 50.808C728.383 51.0282 728.952 51.1418 729.526 51.1424H733.892V46.7675C733.893 45.6084 733.434 44.4963 732.615 43.6758C731.796 42.8554 730.685 42.3939 729.526 42.3927ZM729.526 54.0589H717.882C715.47 54.0589 713.516 56.0179 713.516 58.4345C713.516 60.8504 715.47 62.8094 717.882 62.8094H729.526C731.937 62.8094 733.892 60.8504 733.892 58.4345C733.892 56.0179 731.937 54.0589 729.526 54.0589Z" fill="#737762"/>
<path d="M757.18 58.4345C757.18 56.0179 755.225 54.0589 752.813 54.0589C750.402 54.0589 748.447 56.0179 748.447 58.4345V62.8094H752.813C753.972 62.8082 755.084 62.3466 755.903 61.5262C756.722 60.7058 757.181 59.5937 757.18 58.4345ZM745.536 58.4345V46.7675C745.537 45.6084 745.078 44.4963 744.259 43.6758C743.44 42.8554 742.329 42.3939 741.17 42.3927C738.758 42.3927 736.804 44.3517 736.804 46.7675V58.4338C736.804 60.8511 738.758 62.8101 741.17 62.8101C742.329 62.8089 743.44 62.3474 744.259 61.527C745.078 60.7065 745.537 59.5944 745.536 58.4352" fill="#737762"/>
<path d="M741.17 86.1427C742.329 86.1416 743.44 85.68 744.259 84.8596C745.078 84.0392 745.537 82.9271 745.536 81.7679C745.537 80.6087 745.078 79.4966 744.259 78.6762C743.44 77.8558 742.329 77.3942 741.17 77.393H736.804V81.7679C736.804 84.1837 738.758 86.1427 741.17 86.1427ZM741.17 74.4765H752.814C755.225 74.4765 757.18 72.5175 757.18 70.1009C757.181 68.9417 756.722 67.8296 755.903 67.0092C755.084 66.1888 753.972 65.7272 752.813 65.7261H741.17C738.758 65.7261 736.804 67.6851 736.804 70.1009C736.803 70.6749 736.915 71.2433 737.135 71.7738C737.354 72.3042 737.675 72.7863 738.081 73.1926C738.486 73.5988 738.967 73.9212 739.497 74.1414C740.028 74.3616 740.596 74.4752 741.17 74.4758" fill="#737762"/>
<path d="M713.516 70.1009C713.515 70.6749 713.628 71.2433 713.847 71.7738C714.066 72.3042 714.387 72.7863 714.793 73.1926C715.198 73.5988 715.68 73.9212 716.21 74.1414C716.74 74.3616 717.308 74.4752 717.882 74.4758C719.041 74.4746 720.152 74.013 720.971 73.1926C721.79 72.3722 722.25 71.2601 722.249 70.1009V65.7261H717.882C715.47 65.7261 713.516 67.6851 713.516 70.1009ZM725.159 70.1009V81.7672C725.159 84.1837 727.114 86.1427 729.526 86.1427C730.685 86.1416 731.796 85.68 732.615 84.8596C733.434 84.0392 733.893 82.9271 733.892 81.7679V70.1009C733.893 69.5269 733.78 68.9584 733.561 68.4279C733.342 67.8974 733.021 67.4152 732.615 67.009C732.21 66.6027 731.728 66.2803 731.198 66.0602C730.668 65.8401 730.1 65.7266 729.526 65.7261C727.114 65.7261 725.159 67.6851 725.159 70.1009Z" fill="#737762"/>
</g>
<g clip-path="url(#clip3_8_3216)">
<path d="M1054.89 34.1903C1037.98 34.1903 1024.27 47.9018 1024.27 64.8155C1024.27 81.7299 1037.98 95.4403 1054.89 95.4403C1071.81 95.4403 1085.52 81.7299 1085.52 64.8155C1085.52 47.9029 1071.81 34.1918 1054.89 34.1918L1054.89 34.1903ZM1068.94 78.3606C1068.39 79.2603 1067.21 79.5455 1066.31 78.9933C1059.12 74.6011 1050.07 73.6064 1039.41 76.042C1038.38 76.2761 1037.36 75.6324 1037.12 74.6048C1036.89 73.5771 1037.53 72.5532 1038.56 72.3191C1050.22 69.6538 1060.23 70.8014 1068.3 75.7348C1069.2 76.287 1069.49 77.461 1068.94 78.3606ZM1072.69 70.0217C1071.99 71.1452 1070.52 71.4999 1069.4 70.8087C1061.17 65.7488 1048.62 64.2834 1038.88 67.239C1037.62 67.6205 1036.29 66.9088 1035.9 65.6482C1035.52 64.3854 1036.24 63.0542 1037.5 62.6702C1048.62 59.2955 1062.45 60.9302 1071.9 66.7395C1073.02 67.4307 1073.38 68.9008 1072.69 70.0221V70.0217ZM1073.01 61.3383C1063.14 55.4757 1046.85 54.9366 1037.43 57.7968C1035.91 58.2558 1034.31 57.4015 1033.86 55.8882C1033.4 54.3741 1034.25 52.7749 1035.77 52.3148C1046.58 49.0308 1064.57 49.6653 1075.93 56.4115C1077.3 57.2194 1077.74 58.9773 1076.93 60.3367C1076.13 61.6978 1074.37 62.1465 1073.01 61.3383H1073.01ZM1107.59 62.4618C1102.3 61.2008 1101.36 60.3158 1101.36 58.4562C1101.36 56.6993 1103.01 55.517 1105.48 55.517C1107.86 55.517 1110.22 56.4148 1112.7 58.2631C1112.77 58.319 1112.87 58.3413 1112.96 58.3267C1113.06 58.3128 1113.14 58.262 1113.19 58.1856L1115.77 54.546C1115.88 54.3961 1115.85 54.1895 1115.71 54.075C1112.76 51.7078 1109.44 50.5569 1105.55 50.5569C1099.84 50.5569 1095.85 53.9832 1095.85 58.8855C1095.85 64.1426 1099.29 66.004 1105.24 67.4409C1110.3 68.6064 1111.15 69.5829 1111.15 71.328C1111.15 73.2626 1109.43 74.4658 1106.65 74.4658C1103.56 74.4658 1101.04 73.4235 1098.23 70.9879C1098.16 70.9258 1098.06 70.9002 1097.97 70.9038C1097.88 70.9111 1097.8 70.955 1097.74 71.0245L1094.84 74.4695C1094.72 74.6158 1094.73 74.8279 1094.87 74.9522C1098.15 77.8779 1102.18 79.4212 1106.53 79.4212C1112.68 79.4212 1116.66 76.0603 1116.66 70.8563C1116.67 66.4652 1114.04 64.0332 1107.6 62.4665L1107.59 62.4618ZM1130.58 57.2468C1127.91 57.2468 1125.72 58.2971 1123.92 60.4493V58.0268C1123.92 57.8356 1123.76 57.6798 1123.57 57.6798H1118.84C1118.65 57.6798 1118.49 57.8356 1118.49 58.0268V84.9434C1118.49 85.1335 1118.65 85.2908 1118.84 85.2908H1123.57C1123.76 85.2908 1123.92 85.1335 1123.92 84.9434V76.448C1125.72 78.4703 1127.91 79.4614 1130.58 79.4614C1135.53 79.4614 1140.55 75.6471 1140.55 68.3552C1140.56 61.0619 1135.54 57.2464 1130.58 57.2464L1130.58 57.2468ZM1135.04 68.3552C1135.04 72.0668 1132.76 74.6596 1129.48 74.6596C1126.24 74.6596 1123.8 71.9497 1123.8 68.3552C1123.8 64.7603 1126.24 62.0511 1129.48 62.0511C1132.7 62.0507 1135.04 64.7014 1135.04 68.3548V68.3552ZM1153.41 57.2468C1147.02 57.2468 1142.02 62.1604 1142.02 68.4345C1142.02 74.6414 1146.99 79.5016 1153.33 79.5016C1159.73 79.5016 1164.75 74.6048 1164.75 68.3552C1164.75 62.1268 1159.76 57.2475 1153.41 57.2475V57.2468ZM1153.41 74.6962C1150.01 74.6962 1147.45 71.968 1147.45 68.3534C1147.45 64.7222 1149.92 62.0873 1153.33 62.0873C1156.74 62.0873 1159.32 64.8144 1159.32 68.4327C1159.32 72.0631 1156.83 74.6962 1153.41 74.6962ZM1178.37 57.6798H1173.16V52.3529C1173.16 52.162 1173.01 52.0062 1172.82 52.0062H1168.08C1167.89 52.0062 1167.73 52.162 1167.73 52.3529V57.6798H1165.46C1165.27 57.6798 1165.12 57.8356 1165.12 58.0268V62.0961C1165.12 62.287 1165.27 62.4431 1165.46 62.4431H1167.73V72.9737C1167.73 77.2269 1169.85 79.3846 1174.03 79.3846C1175.73 79.3846 1177.14 79.0335 1178.46 78.2802C1178.57 78.2216 1178.64 78.1046 1178.64 77.9803V74.1038C1178.64 73.9867 1178.58 73.8734 1178.47 73.8112C1178.37 73.7454 1178.24 73.7417 1178.14 73.7966C1177.23 74.2537 1176.35 74.4658 1175.36 74.4658C1173.84 74.4658 1173.16 73.7746 1173.16 72.2313V62.445H1178.37C1178.56 62.445 1178.72 62.2892 1178.72 62.0979V58.029C1178.72 57.8378 1178.57 57.682 1178.38 57.682L1178.37 57.6798ZM1196.53 57.7006V57.0464C1196.53 55.1216 1197.26 54.2633 1198.92 54.2633C1199.9 54.2633 1200.7 54.4594 1201.59 54.7556C1201.7 54.79 1201.81 54.7728 1201.9 54.7073C1201.99 54.6418 1202.04 54.5369 1202.04 54.4257V50.4358C1202.04 50.2833 1201.95 50.1484 1201.8 50.1034C1200.86 49.8244 1199.66 49.538 1197.86 49.538C1193.49 49.538 1191.18 52.0007 1191.18 56.6573V57.6593H1188.9C1188.71 57.6593 1188.55 57.8151 1188.55 58.006V62.0961C1188.55 62.287 1188.71 62.4431 1188.9 62.4431H1191.18V78.6824C1191.18 78.8763 1191.33 79.0299 1191.52 79.0299H1196.26C1196.45 79.0299 1196.6 78.8763 1196.6 78.6824V62.4442H1201.02L1207.8 78.6824C1207.03 80.3866 1206.27 80.7267 1205.24 80.7267C1204.41 80.7267 1203.53 80.4781 1202.63 79.9844C1202.55 79.9405 1202.44 79.9332 1202.36 79.9588C1202.26 79.9917 1202.19 80.0575 1202.15 80.1453L1200.54 83.667C1200.47 83.8353 1200.53 84.0291 1200.69 84.1169C1202.37 85.0238 1203.88 85.4115 1205.75 85.4115C1209.25 85.4115 1211.18 83.7804 1212.88 79.3992L1221.09 58.1746C1221.14 58.0678 1221.12 57.9471 1221.06 57.8524C1221 57.7584 1220.89 57.7017 1220.78 57.7017H1215.85C1215.7 57.7017 1215.56 57.7957 1215.52 57.9343L1210.47 72.3557L1204.94 57.9248C1204.89 57.7906 1204.76 57.7017 1204.62 57.7017H1196.53V57.7006ZM1186 57.6798H1181.26C1181.07 57.6798 1180.92 57.8356 1180.92 58.0268V78.6824C1180.92 78.8763 1181.07 79.0299 1181.26 79.0299H1186C1186.19 79.0299 1186.35 78.8763 1186.35 78.6824V58.0283C1186.35 57.837 1186.19 57.6812 1186 57.6812V57.6798ZM1183.66 48.2741C1181.78 48.2741 1180.26 49.7925 1180.26 51.6683C1180.26 53.5451 1181.78 55.0653 1183.66 55.0653C1185.54 55.0653 1187.05 53.5451 1187.05 51.6683C1187.05 49.7929 1185.53 48.2741 1183.66 48.2741ZM1225.14 64.3214C1223.27 64.3214 1221.81 62.8165 1221.81 60.9891C1221.81 59.1616 1223.28 57.6396 1225.16 57.6396C1227.03 57.6396 1228.49 59.1441 1228.49 60.9701C1228.49 62.7975 1227.01 64.3214 1225.14 64.3214ZM1225.16 57.9709C1223.45 57.9709 1222.16 59.3277 1222.16 60.9891C1222.16 62.6498 1223.44 63.9883 1225.14 63.9883C1226.85 63.9883 1228.14 62.6326 1228.14 60.9701C1228.14 59.3094 1226.85 57.9709 1225.16 57.9709ZM1225.9 61.3127L1226.84 62.6322H1226.04L1225.19 61.4217H1224.47V62.6322H1223.8V59.1346H1225.36C1226.17 59.1346 1226.71 59.5504 1226.71 60.2503C1226.71 60.8238 1226.38 61.1741 1225.9 61.3127H1225.9ZM1225.33 59.7347H1224.47V60.841H1225.33C1225.76 60.841 1226.02 60.6292 1226.02 60.2873C1226.02 59.9274 1225.76 59.7347 1225.33 59.7347Z" fill="#737762"/>
</g>
<defs>
<clipPath id="clip0_8_3216">
<rect width="196.875" height="70" fill="white" transform="translate(54.3075 29.7)"/>
</clipPath>
<clipPath id="clip1_8_3216">
<rect width="237.708" height="70" fill="white" transform="translate(358.391 29.7)"/>
</clipPath>
<clipPath id="clip2_8_3216">
<rect width="176.458" height="70" fill="white" transform="translate(713.516 29.7)"/>
</clipPath>
<clipPath id="clip3_8_3216">
<rect width="204.167" height="70" fill="white" transform="translate(1024.16 29.7)"/>
</clipPath>
</defs>
</svg>
