<svg width="60" height="60" viewBox="0 0 60 60" fill="none" xmlns="http://www.w3.org/2000/svg">
<rect width="60" height="60" rx="9" fill="#EFF1EE"/>
<path d="M41.6083 21.8445H17.6083C17.0778 21.8445 16.5691 22.0552 16.1941 22.4303C15.819 22.8053 15.6083 23.314 15.6083 23.8445V32.8445C15.6083 33.3749 15.819 33.8836 16.1941 34.2587C16.5691 34.6338 17.0778 34.8445 17.6083 34.8445H20.6083V38.8445C20.6083 39.1097 20.7136 39.3641 20.9012 39.5516C21.0887 39.7391 21.3431 39.8445 21.6083 39.8445C21.8735 39.8445 22.1278 39.7391 22.3154 39.5516C22.5029 39.3641 22.6083 39.1097 22.6083 38.8445V34.8445H36.6083V38.8445C36.6083 39.1097 36.7136 39.3641 36.9012 39.5516C37.0887 39.7391 37.3431 39.8445 37.6083 39.8445C37.8735 39.8445 38.1278 39.7391 38.3154 39.5516C38.5029 39.3641 38.6083 39.1097 38.6083 38.8445V34.8445H41.6083C42.1387 34.8445 42.6474 34.6338 43.0225 34.2587C43.3976 33.8836 43.6083 33.3749 43.6083 32.8445V23.8445C43.6083 23.314 43.3976 22.8053 43.0225 22.4303C42.6474 22.0552 42.1387 21.8445 41.6083 21.8445ZM41.6083 29.9307L35.522 23.8445H41.6083V29.9307ZM23.6945 23.8445L32.6945 32.8445H26.522L17.6083 23.9307V23.8445H23.6945ZM17.6083 26.7582L23.6945 32.8445H17.6083V26.7582ZM41.6083 32.8445H35.522L26.522 23.8445H32.6945L41.6083 32.7595V32.8445Z" fill="black"/>
</svg>
