<svg width="60" height="60" viewBox="0 0 60 60" fill="none" xmlns="http://www.w3.org/2000/svg">
<rect width="60" height="60" rx="9" fill="#EFF1EE"/>
<path d="M42.9851 19.8852C42.8653 19.7919 42.7259 19.727 42.5773 19.6956C42.4287 19.6642 42.2749 19.6671 42.1276 19.704L34.4864 21.614L26.8176 17.779C26.6039 17.6724 26.3592 17.6458 26.1276 17.704L18.1276 19.704C17.9113 19.758 17.7192 19.8829 17.582 20.0586C17.4447 20.2344 17.3702 20.451 17.3701 20.674V38.674C17.3701 38.8259 17.4048 38.9759 17.4714 39.1124C17.5381 39.249 17.635 39.3686 17.7548 39.4621C17.8745 39.5556 18.014 39.6205 18.1627 39.6521C18.3113 39.6836 18.4652 39.6808 18.6126 39.644L26.2539 37.734L33.9226 41.569C34.0618 41.6376 34.2149 41.6735 34.3701 41.674C34.4519 41.6739 34.5333 41.6638 34.6126 41.644L42.6126 39.644C42.829 39.5899 43.021 39.4651 43.1583 39.2893C43.2955 39.1136 43.3701 38.897 43.3701 38.674V20.674C43.3702 20.5219 43.3355 20.3718 43.2688 20.2351C43.2021 20.0984 43.105 19.9788 42.9851 19.8852ZM27.3701 20.2915L33.3701 23.2915V39.0565L27.3701 36.0565V20.2915ZM19.3701 21.4552L25.3701 19.9552V35.8927L19.3701 37.3927V21.4552ZM41.3701 37.8927L35.3701 39.3927V23.4552L41.3701 21.9552V37.8927Z" fill="black"/>
</svg>
