<svg width="60" height="60" viewBox="0 0 60 60" fill="none" xmlns="http://www.w3.org/2000/svg">
<rect width="60" height="60" rx="9" fill="#EFF1EE"/>
<path d="M30.2148 16.8125C27.9703 16.812 25.764 17.3926 23.8106 18.4978C21.8571 19.603 20.2231 21.1951 19.0675 23.1191C17.9119 25.0432 17.2741 27.2337 17.2162 29.4773C17.1584 31.721 17.6824 33.9414 18.7373 35.9225L17.3185 40.1787C17.201 40.5311 17.1839 40.9093 17.2692 41.2708C17.3546 41.6324 17.5389 41.963 17.8016 42.2257C18.0642 42.4884 18.3949 42.6727 18.7564 42.758C19.118 42.8433 19.4961 42.8263 19.8485 42.7087L24.1048 41.29C25.8482 42.2173 27.78 42.7353 29.7535 42.8045C31.7271 42.8738 33.6904 42.4925 35.4946 41.6897C37.2988 40.8868 38.8963 39.6835 40.166 38.1711C41.4357 36.6587 42.3442 34.8769 42.8224 32.9609C43.3007 31.045 43.3361 29.0453 42.9262 27.1135C42.5162 25.1818 41.6715 23.3689 40.4563 21.8124C39.2411 20.2559 37.6872 18.9967 35.9126 18.1303C34.1381 17.264 32.1895 16.8133 30.2148 16.8125ZM30.2148 40.8125C28.281 40.8138 26.3811 40.3046 24.7073 39.3363C24.5847 39.2652 24.4484 39.221 24.3075 39.2065C24.1666 39.1921 24.0242 39.2078 23.8898 39.2525L19.2148 40.8125L20.7735 36.1375C20.8184 36.0032 20.8343 35.8608 20.8201 35.7199C20.8059 35.579 20.7619 35.4426 20.691 35.32C19.4785 33.2236 18.9916 30.7857 19.306 28.3845C19.6204 25.9832 20.7185 23.7528 22.4299 22.0392C24.1412 20.3257 26.3702 19.2248 28.7711 18.9074C31.172 18.59 33.6105 19.0737 35.7084 20.2836C37.8063 21.4935 39.4463 23.3619 40.3739 25.5989C41.3016 27.836 41.4651 30.3167 40.839 32.6561C40.213 34.9956 38.8324 37.063 36.9114 38.5378C34.9905 40.0125 32.6365 40.8121 30.2148 40.8125Z" fill="black"/>
</svg>
