<svg width="60" height="60" viewBox="0 0 60 60" fill="none" xmlns="http://www.w3.org/2000/svg">
<rect width="60" height="60" rx="9" fill="#EFF1EE"/>
<path d="M43.204 40.4062C41.3002 37.115 38.3665 34.755 34.9427 33.6362C36.6363 32.6281 37.952 31.0918 38.688 29.2635C39.4239 27.4351 39.5394 25.4157 39.0165 23.5154C38.4937 21.6151 37.3616 19.939 35.7939 18.7444C34.2263 17.5498 32.3099 16.9028 30.339 16.9028C28.368 16.9028 26.4516 17.5498 24.884 18.7444C23.3164 19.939 22.1842 21.6151 21.6614 23.5154C21.1386 25.4157 21.254 27.4351 21.9899 29.2635C22.7259 31.0918 24.0417 32.6281 25.7352 33.6362C22.3115 34.7537 19.3777 37.1137 17.474 40.4062C17.4041 40.5201 17.3578 40.6467 17.3378 40.7788C17.3177 40.9108 17.3243 41.0455 17.3571 41.1749C17.39 41.3044 17.4484 41.4259 17.529 41.5324C17.6095 41.6389 17.7106 41.7282 17.8262 41.795C17.9419 41.8618 18.0697 41.9047 18.2022 41.9213C18.3347 41.9379 18.4692 41.9278 18.5977 41.8915C18.7263 41.8553 18.8462 41.7937 18.9506 41.7103C19.0549 41.627 19.1415 41.5236 19.2052 41.4062C21.5602 37.3362 25.7227 34.9062 30.339 34.9062C34.9552 34.9062 39.1177 37.3362 41.4727 41.4062C41.5364 41.5236 41.623 41.627 41.7274 41.7103C41.8317 41.7937 41.9517 41.8553 42.0802 41.8915C42.2087 41.9278 42.3432 41.9379 42.4757 41.9213C42.6082 41.9047 42.736 41.8618 42.8517 41.795C42.9673 41.7282 43.0684 41.6389 43.149 41.5324C43.2295 41.4259 43.288 41.3044 43.3208 41.1749C43.3536 41.0455 43.3602 40.9108 43.3401 40.7788C43.3201 40.6467 43.2738 40.5201 43.204 40.4062ZM23.339 25.9062C23.339 24.5218 23.7495 23.1684 24.5187 22.0172C25.2878 20.8661 26.3811 19.9689 27.6602 19.4391C28.9393 18.9093 30.3467 18.7706 31.7046 19.0407C33.0625 19.3108 34.3097 19.9775 35.2887 20.9565C36.2677 21.9355 36.9344 23.1827 37.2045 24.5406C37.4746 25.8985 37.3359 27.3059 36.8061 28.585C36.2763 29.8641 35.3791 30.9574 34.228 31.7265C33.0768 32.4957 31.7234 32.9062 30.339 32.9062C28.4831 32.9042 26.7037 32.1661 25.3914 30.8538C24.0791 29.5415 23.3409 27.7621 23.339 25.9062Z" fill="black"/>
</svg>
