<svg width="191" height="117" viewBox="0 0 191 117" fill="none" xmlns="http://www.w3.org/2000/svg">
<path d="M114.25 30.1873V41.1248C114.25 41.9536 113.921 42.7484 113.335 43.3345C112.749 43.9205 111.954 44.2498 111.125 44.2498H79.875C79.0462 44.2498 78.2513 43.9205 77.6653 43.3345C77.0792 42.7484 76.75 41.9536 76.75 41.1248V30.1873C76.75 29.7729 76.9146 29.3754 77.2076 29.0824C77.5007 28.7894 77.8981 28.6248 78.3125 28.6248C78.7269 28.6248 79.1243 28.7894 79.4174 29.0824C79.7104 29.3754 79.875 29.7729 79.875 30.1873V41.1248H111.125V30.1873C111.125 29.7729 111.29 29.3754 111.583 29.0824C111.876 28.7894 112.273 28.6248 112.688 28.6248C113.102 28.6248 113.499 28.7894 113.792 29.0824C114.085 29.3754 114.25 29.7729 114.25 30.1873ZM88.793 17.2302L93.9375 12.0837V30.1873C93.9375 30.6017 94.1021 30.9991 94.3951 31.2921C94.6882 31.5851 95.0856 31.7498 95.5 31.7498C95.9144 31.7498 96.3118 31.5851 96.6049 31.2921C96.8979 30.9991 97.0625 30.6017 97.0625 30.1873V12.0837L102.207 17.2302C102.5 17.5234 102.898 17.6881 103.312 17.6881C103.727 17.6881 104.125 17.5234 104.418 17.2302C104.711 16.937 104.876 16.5394 104.876 16.1248C104.876 15.7101 104.711 15.3125 104.418 15.0193L96.6055 7.2068C96.4604 7.06152 96.288 6.94627 96.0983 6.86764C95.9087 6.78901 95.7053 6.74854 95.5 6.74854C95.2947 6.74854 95.0913 6.78901 94.9017 6.86764C94.712 6.94627 94.5396 7.06152 94.3945 7.2068L86.582 15.0193C86.2888 15.3125 86.1241 15.7101 86.1241 16.1248C86.1241 16.5394 86.2888 16.937 86.582 17.2302C86.8752 17.5234 87.2729 17.6881 87.6875 17.6881C88.1021 17.6881 88.4998 17.5234 88.793 17.2302Z" fill="black"/>
<path d="M8.028 70.132C8.028 71.092 7.848 71.896 7.488 72.544C7.136 73.192 6.628 73.68 5.964 74.008C5.3 74.336 4.496 74.5 3.552 74.5H1.164V65.932H3.804C4.668 65.932 5.416 66.092 6.048 66.412C6.68 66.732 7.168 67.204 7.512 67.828C7.856 68.444 8.028 69.212 8.028 70.132ZM6.888 70.168C6.888 69.408 6.76 68.784 6.504 68.296C6.256 67.808 5.888 67.448 5.4 67.216C4.92 66.976 4.336 66.856 3.648 66.856H2.244V73.576H3.408C4.568 73.576 5.436 73.292 6.012 72.724C6.596 72.148 6.888 71.296 6.888 70.168ZM12.7856 67.948C12.9056 67.948 13.0336 67.956 13.1696 67.972C13.3136 67.98 13.4376 67.996 13.5416 68.02L13.4096 68.992C13.3056 68.968 13.1896 68.948 13.0616 68.932C12.9416 68.916 12.8256 68.908 12.7136 68.908C12.4656 68.908 12.2296 68.96 12.0056 69.064C11.7816 69.168 11.5816 69.316 11.4056 69.508C11.2296 69.692 11.0896 69.916 10.9856 70.18C10.8896 70.444 10.8416 70.74 10.8416 71.068V74.5H9.78563V68.068H10.6496L10.7696 69.244H10.8176C10.9536 69.004 11.1176 68.788 11.3096 68.596C11.5016 68.396 11.7216 68.24 11.9696 68.128C12.2176 68.008 12.4896 67.948 12.7856 67.948ZM20.1003 71.272C20.1003 71.808 20.0283 72.284 19.8843 72.7C19.7483 73.108 19.5483 73.456 19.2843 73.744C19.0283 74.032 18.7123 74.252 18.3363 74.404C17.9683 74.548 17.5563 74.62 17.1003 74.62C16.6763 74.62 16.2843 74.548 15.9243 74.404C15.5643 74.252 15.2523 74.032 14.9883 73.744C14.7243 73.456 14.5163 73.108 14.3643 72.7C14.2203 72.284 14.1483 71.808 14.1483 71.272C14.1483 70.56 14.2683 69.96 14.5083 69.472C14.7483 68.976 15.0923 68.6 15.5403 68.344C15.9883 68.08 16.5203 67.948 17.1363 67.948C17.7203 67.948 18.2323 68.08 18.6723 68.344C19.1203 68.6 19.4683 68.976 19.7163 69.472C19.9723 69.96 20.1003 70.56 20.1003 71.272ZM15.2403 71.272C15.2403 71.776 15.3043 72.216 15.4323 72.592C15.5683 72.96 15.7763 73.244 16.0563 73.444C16.3363 73.644 16.6923 73.744 17.1243 73.744C17.5563 73.744 17.9123 73.644 18.1923 73.444C18.4723 73.244 18.6763 72.96 18.8043 72.592C18.9403 72.216 19.0083 71.776 19.0083 71.272C19.0083 70.76 18.9403 70.324 18.8043 69.964C18.6683 69.604 18.4603 69.328 18.1803 69.136C17.9083 68.936 17.5523 68.836 17.1123 68.836C16.4563 68.836 15.9803 69.052 15.6843 69.484C15.3883 69.916 15.2403 70.512 15.2403 71.272ZM24.8339 67.948C25.6259 67.948 26.2619 68.224 26.7419 68.776C27.2299 69.328 27.4739 70.16 27.4739 71.272C27.4739 72 27.3619 72.616 27.1379 73.12C26.9219 73.616 26.6139 73.992 26.2139 74.248C25.8219 74.496 25.3579 74.62 24.8219 74.62C24.4939 74.62 24.2019 74.576 23.9459 74.488C23.6899 74.4 23.4699 74.288 23.2859 74.152C23.1099 74.008 22.9579 73.852 22.8299 73.684H22.7579C22.7739 73.82 22.7899 73.992 22.8059 74.2C22.8219 74.408 22.8299 74.588 22.8299 74.74V77.38H21.7739V68.068H22.6379L22.7819 68.944H22.8299C22.9579 68.76 23.1099 68.592 23.2859 68.44C23.4699 68.288 23.6859 68.168 23.9339 68.08C24.1899 67.992 24.4899 67.948 24.8339 67.948ZM24.6419 68.836C24.2099 68.836 23.8619 68.92 23.5979 69.088C23.3339 69.248 23.1419 69.492 23.0219 69.82C22.9019 70.148 22.8379 70.564 22.8299 71.068V71.272C22.8299 71.8 22.8859 72.248 22.9979 72.616C23.1099 72.984 23.2979 73.264 23.5619 73.456C23.8339 73.648 24.2019 73.744 24.6659 73.744C25.0579 73.744 25.3779 73.636 25.6259 73.42C25.8819 73.204 26.0699 72.912 26.1899 72.544C26.3179 72.168 26.3819 71.74 26.3819 71.26C26.3819 70.524 26.2379 69.936 25.9499 69.496C25.6699 69.056 25.2339 68.836 24.6419 68.836ZM31.2659 68.068H32.3939L33.7859 71.728C33.8659 71.944 33.9379 72.152 34.0019 72.352C34.0739 72.552 34.1379 72.748 34.1939 72.94C34.2499 73.124 34.2939 73.304 34.3259 73.48H34.3739C34.4219 73.28 34.4979 73.02 34.6019 72.7C34.7059 72.372 34.8139 72.044 34.9259 71.716L36.2339 68.068H37.3739L34.6019 75.388C34.4499 75.788 34.2699 76.136 34.0619 76.432C33.8619 76.736 33.6139 76.968 33.3179 77.128C33.0299 77.296 32.6779 77.38 32.2619 77.38C32.0699 77.38 31.9019 77.368 31.7579 77.344C31.6139 77.328 31.4899 77.308 31.3859 77.284V76.444C31.4739 76.46 31.5779 76.476 31.6979 76.492C31.8259 76.508 31.9579 76.516 32.0939 76.516C32.3419 76.516 32.5539 76.468 32.7299 76.372C32.9139 76.284 33.0699 76.152 33.1979 75.976C33.3259 75.808 33.4339 75.608 33.5219 75.376L33.8579 74.524L31.2659 68.068ZM43.9831 71.272C43.9831 71.808 43.9111 72.284 43.7671 72.7C43.6311 73.108 43.4311 73.456 43.1671 73.744C42.9111 74.032 42.5951 74.252 42.2191 74.404C41.8511 74.548 41.4391 74.62 40.9831 74.62C40.5591 74.62 40.1671 74.548 39.8071 74.404C39.4471 74.252 39.1351 74.032 38.8711 73.744C38.6071 73.456 38.3991 73.108 38.2471 72.7C38.1031 72.284 38.0311 71.808 38.0311 71.272C38.0311 70.56 38.1511 69.96 38.3911 69.472C38.6311 68.976 38.9751 68.6 39.4231 68.344C39.8711 68.08 40.4031 67.948 41.0191 67.948C41.6031 67.948 42.1151 68.08 42.5551 68.344C43.0031 68.6 43.3511 68.976 43.5991 69.472C43.8551 69.96 43.9831 70.56 43.9831 71.272ZM39.1231 71.272C39.1231 71.776 39.1871 72.216 39.3151 72.592C39.4511 72.96 39.6591 73.244 39.9391 73.444C40.2191 73.644 40.5751 73.744 41.0071 73.744C41.4391 73.744 41.7951 73.644 42.0751 73.444C42.3551 73.244 42.5591 72.96 42.6871 72.592C42.8231 72.216 42.8911 71.776 42.8911 71.272C42.8911 70.76 42.8231 70.324 42.6871 69.964C42.5511 69.604 42.3431 69.328 42.0631 69.136C41.7911 68.936 41.4351 68.836 40.9951 68.836C40.3391 68.836 39.8631 69.052 39.5671 69.484C39.2711 69.916 39.1231 70.512 39.1231 71.272ZM51.0327 68.068V74.5H50.1687L50.0127 73.648H49.9647C49.8287 73.872 49.6527 74.056 49.4367 74.2C49.2207 74.344 48.9847 74.448 48.7287 74.512C48.4727 74.584 48.2047 74.62 47.9247 74.62C47.4127 74.62 46.9807 74.54 46.6287 74.38C46.2847 74.212 46.0247 73.956 45.8487 73.612C45.6727 73.268 45.5847 72.824 45.5847 72.28V68.068H46.6527V72.208C46.6527 72.72 46.7687 73.104 47.0007 73.36C47.2327 73.616 47.5927 73.744 48.0807 73.744C48.5607 73.744 48.9367 73.656 49.2087 73.48C49.4887 73.296 49.6847 73.032 49.7967 72.688C49.9167 72.336 49.9767 71.912 49.9767 71.416V68.068H51.0327ZM56.0747 67.948C56.1947 67.948 56.3227 67.956 56.4587 67.972C56.6027 67.98 56.7267 67.996 56.8307 68.02L56.6987 68.992C56.5947 68.968 56.4787 68.948 56.3507 68.932C56.2307 68.916 56.1147 68.908 56.0027 68.908C55.7547 68.908 55.5187 68.96 55.2947 69.064C55.0707 69.168 54.8707 69.316 54.6947 69.508C54.5187 69.692 54.3787 69.916 54.2747 70.18C54.1787 70.444 54.1307 70.74 54.1307 71.068V74.5H53.0747V68.068H53.9387L54.0587 69.244H54.1067C54.2427 69.004 54.4067 68.788 54.5987 68.596C54.7907 68.396 55.0107 68.24 55.2587 68.128C55.5067 68.008 55.7787 67.948 56.0747 67.948ZM62.2049 68.068V74.5H61.1489V68.068H62.2049ZM61.6889 65.656C61.8489 65.656 61.9889 65.712 62.1089 65.824C62.2369 65.928 62.3009 66.096 62.3009 66.328C62.3009 66.552 62.2369 66.72 62.1089 66.832C61.9889 66.944 61.8489 67 61.6889 67C61.5129 67 61.3649 66.944 61.2449 66.832C61.1249 66.72 61.0649 66.552 61.0649 66.328C61.0649 66.096 61.1249 65.928 61.2449 65.824C61.3649 65.712 61.5129 65.656 61.6889 65.656ZM71.2987 67.948C72.0267 67.948 72.5707 68.136 72.9307 68.512C73.2907 68.88 73.4707 69.48 73.4707 70.312V74.5H72.4267V70.36C72.4267 69.856 72.3187 69.476 72.1027 69.22C71.8947 68.964 71.5667 68.836 71.1187 68.836C70.4947 68.836 70.0467 69.016 69.7747 69.376C69.5107 69.736 69.3787 70.26 69.3787 70.948V74.5H68.3347V70.36C68.3347 70.024 68.2867 69.744 68.1907 69.52C68.0947 69.288 67.9507 69.116 67.7587 69.004C67.5667 68.892 67.3187 68.836 67.0147 68.836C66.5827 68.836 66.2427 68.928 65.9947 69.112C65.7467 69.288 65.5667 69.548 65.4547 69.892C65.3507 70.236 65.2987 70.66 65.2987 71.164V74.5H64.2427V68.068H65.0947L65.2507 68.944H65.3107C65.4467 68.72 65.6107 68.536 65.8027 68.392C66.0027 68.24 66.2227 68.128 66.4627 68.056C66.7027 67.984 66.9507 67.948 67.2067 67.948C67.7027 67.948 68.1147 68.036 68.4427 68.212C68.7787 68.388 69.0227 68.66 69.1747 69.028H69.2347C69.4507 68.66 69.7427 68.388 70.1107 68.212C70.4867 68.036 70.8827 67.948 71.2987 67.948ZM77.8935 67.96C78.6775 67.96 79.2575 68.132 79.6335 68.476C80.0095 68.82 80.1975 69.368 80.1975 70.12V74.5H79.4295L79.2255 73.588H79.1775C78.9935 73.82 78.8015 74.016 78.6015 74.176C78.4095 74.328 78.1855 74.44 77.9295 74.512C77.6815 74.584 77.3775 74.62 77.0175 74.62C76.6335 74.62 76.2855 74.552 75.9735 74.416C75.6695 74.28 75.4295 74.072 75.2535 73.792C75.0775 73.504 74.9895 73.144 74.9895 72.712C74.9895 72.072 75.2415 71.58 75.7455 71.236C76.2495 70.884 77.0255 70.692 78.0735 70.66L79.1655 70.624V70.24C79.1655 69.704 79.0495 69.332 78.8175 69.124C78.5855 68.916 78.2575 68.812 77.8335 68.812C77.4975 68.812 77.1775 68.864 76.8735 68.968C76.5695 69.064 76.2855 69.176 76.0215 69.304L75.6975 68.512C75.9775 68.36 76.3095 68.232 76.6935 68.128C77.0775 68.016 77.4775 67.96 77.8935 67.96ZM78.2055 71.392C77.4055 71.424 76.8495 71.552 76.5375 71.776C76.2335 72 76.0815 72.316 76.0815 72.724C76.0815 73.084 76.1895 73.348 76.4055 73.516C76.6295 73.684 76.9135 73.768 77.2575 73.768C77.8015 73.768 78.2535 73.62 78.6135 73.324C78.9735 73.02 79.1535 72.556 79.1535 71.932V71.356L78.2055 71.392ZM84.4641 67.948C84.8881 67.948 85.2681 68.028 85.6041 68.188C85.9481 68.348 86.2401 68.592 86.4801 68.92H86.5401L86.6841 68.068H87.5241V74.608C87.5241 75.216 87.4201 75.724 87.2121 76.132C87.0041 76.548 86.6881 76.86 86.2641 77.068C85.8401 77.276 85.3001 77.38 84.6441 77.38C84.1801 77.38 83.7521 77.344 83.3601 77.272C82.9761 77.208 82.6321 77.108 82.3281 76.972V76C82.5361 76.104 82.7641 76.192 83.0121 76.264C83.2601 76.344 83.5281 76.404 83.8161 76.444C84.1041 76.484 84.4001 76.504 84.7041 76.504C85.2561 76.504 85.6881 76.34 86.0001 76.012C86.3201 75.692 86.4801 75.252 86.4801 74.692V74.44C86.4801 74.344 86.4841 74.208 86.4921 74.032C86.5001 73.848 86.5081 73.72 86.5161 73.648H86.4681C86.2441 73.976 85.9641 74.22 85.6281 74.38C85.3001 74.54 84.9161 74.62 84.4761 74.62C83.6441 74.62 82.9921 74.328 82.5201 73.744C82.0561 73.16 81.8241 72.344 81.8241 71.296C81.8241 70.608 81.9281 70.016 82.1361 69.52C82.3521 69.016 82.6561 68.628 83.0481 68.356C83.4401 68.084 83.9121 67.948 84.4641 67.948ZM84.6081 68.836C84.2481 68.836 83.9401 68.932 83.6841 69.124C83.4361 69.316 83.2441 69.596 83.1081 69.964C82.9801 70.332 82.9161 70.78 82.9161 71.308C82.9161 72.1 83.0601 72.708 83.3481 73.132C83.6441 73.548 84.0721 73.756 84.6321 73.756C84.9601 73.756 85.2401 73.716 85.4721 73.636C85.7041 73.548 85.8961 73.416 86.0481 73.24C86.2001 73.056 86.3121 72.824 86.3841 72.544C86.4561 72.264 86.4921 71.932 86.4921 71.548V71.296C86.4921 70.712 86.4241 70.24 86.2881 69.88C86.1601 69.52 85.9561 69.256 85.6761 69.088C85.3961 68.92 85.0401 68.836 84.6081 68.836ZM92.0509 67.948C92.6029 67.948 93.0749 68.068 93.4669 68.308C93.8669 68.548 94.1709 68.888 94.3789 69.328C94.5949 69.76 94.7029 70.268 94.7029 70.852V71.488H90.2989C90.3149 72.216 90.4989 72.772 90.8509 73.156C91.2109 73.532 91.7109 73.72 92.3509 73.72C92.7589 73.72 93.1189 73.684 93.4309 73.612C93.7509 73.532 94.0789 73.42 94.4149 73.276V74.2C94.0869 74.344 93.7629 74.448 93.4429 74.512C93.1229 74.584 92.7429 74.62 92.3029 74.62C91.6949 74.62 91.1549 74.496 90.6829 74.248C90.2189 74 89.8549 73.632 89.5909 73.144C89.3349 72.648 89.2069 72.044 89.2069 71.332C89.2069 70.628 89.3229 70.024 89.5549 69.52C89.7949 69.016 90.1269 68.628 90.5509 68.356C90.9829 68.084 91.4829 67.948 92.0509 67.948ZM92.0389 68.812C91.5349 68.812 91.1349 68.976 90.8389 69.304C90.5509 69.624 90.3789 70.072 90.3229 70.648H93.5989C93.5989 70.28 93.5429 69.96 93.4309 69.688C93.3189 69.416 93.1469 69.204 92.9149 69.052C92.6909 68.892 92.3989 68.812 92.0389 68.812ZM100.514 68.056C100.514 68.208 100.506 68.364 100.49 68.524C100.482 68.684 100.47 68.828 100.454 68.956H100.526C100.662 68.732 100.834 68.548 101.042 68.404C101.25 68.26 101.482 68.152 101.738 68.08C101.994 68 102.258 67.96 102.53 67.96C103.05 67.96 103.482 68.044 103.826 68.212C104.178 68.372 104.442 68.624 104.618 68.968C104.794 69.312 104.882 69.76 104.882 70.312V74.5H103.838V70.384C103.838 69.864 103.722 69.476 103.49 69.22C103.258 68.964 102.894 68.836 102.398 68.836C101.918 68.836 101.542 68.928 101.27 69.112C100.998 69.288 100.802 69.552 100.682 69.904C100.57 70.248 100.514 70.672 100.514 71.176V74.5H99.4575V65.38H100.514V68.056ZM109.359 67.948C109.911 67.948 110.383 68.068 110.775 68.308C111.175 68.548 111.479 68.888 111.687 69.328C111.903 69.76 112.011 70.268 112.011 70.852V71.488H107.607C107.623 72.216 107.807 72.772 108.159 73.156C108.519 73.532 109.019 73.72 109.659 73.72C110.067 73.72 110.427 73.684 110.739 73.612C111.059 73.532 111.387 73.42 111.723 73.276V74.2C111.395 74.344 111.071 74.448 110.751 74.512C110.431 74.584 110.051 74.62 109.611 74.62C109.003 74.62 108.463 74.496 107.991 74.248C107.527 74 107.163 73.632 106.899 73.144C106.643 72.648 106.515 72.044 106.515 71.332C106.515 70.628 106.631 70.024 106.863 69.52C107.103 69.016 107.435 68.628 107.859 68.356C108.291 68.084 108.791 67.948 109.359 67.948ZM109.347 68.812C108.843 68.812 108.443 68.976 108.147 69.304C107.859 69.624 107.687 70.072 107.631 70.648H110.907C110.907 70.28 110.851 69.96 110.739 69.688C110.627 69.416 110.455 69.204 110.223 69.052C109.999 68.892 109.707 68.812 109.347 68.812ZM116.649 67.948C116.769 67.948 116.897 67.956 117.033 67.972C117.177 67.98 117.301 67.996 117.405 68.02L117.273 68.992C117.169 68.968 117.053 68.948 116.925 68.932C116.805 68.916 116.689 68.908 116.577 68.908C116.329 68.908 116.093 68.96 115.869 69.064C115.645 69.168 115.445 69.316 115.269 69.508C115.093 69.692 114.953 69.916 114.849 70.18C114.753 70.444 114.705 70.74 114.705 71.068V74.5H113.649V68.068H114.513L114.633 69.244H114.681C114.817 69.004 114.981 68.788 115.173 68.596C115.365 68.396 115.585 68.24 115.833 68.128C116.081 68.008 116.353 67.948 116.649 67.948ZM120.856 67.948C121.408 67.948 121.88 68.068 122.272 68.308C122.672 68.548 122.976 68.888 123.184 69.328C123.4 69.76 123.508 70.268 123.508 70.852V71.488H119.104C119.12 72.216 119.304 72.772 119.656 73.156C120.016 73.532 120.516 73.72 121.156 73.72C121.564 73.72 121.924 73.684 122.236 73.612C122.556 73.532 122.884 73.42 123.22 73.276V74.2C122.892 74.344 122.568 74.448 122.248 74.512C121.928 74.584 121.548 74.62 121.108 74.62C120.5 74.62 119.96 74.496 119.488 74.248C119.024 74 118.66 73.632 118.396 73.144C118.14 72.648 118.012 72.044 118.012 71.332C118.012 70.628 118.128 70.024 118.36 69.52C118.6 69.016 118.932 68.628 119.356 68.356C119.788 68.084 120.288 67.948 120.856 67.948ZM120.844 68.812C120.34 68.812 119.94 68.976 119.644 69.304C119.356 69.624 119.184 70.072 119.128 70.648H122.404C122.404 70.28 122.348 69.96 122.236 69.688C122.124 69.416 121.952 69.204 121.72 69.052C121.496 68.892 121.204 68.812 120.844 68.812ZM126.429 73.24C126.357 73.52 126.265 73.824 126.153 74.152C126.041 74.48 125.917 74.804 125.781 75.124C125.653 75.452 125.525 75.76 125.397 76.048H124.617C124.697 75.744 124.773 75.416 124.845 75.064C124.925 74.72 124.997 74.38 125.061 74.044C125.125 73.7 125.177 73.388 125.217 73.108H126.345L126.429 73.24ZM137.065 71.272C137.065 71.808 136.993 72.284 136.849 72.7C136.713 73.108 136.513 73.456 136.249 73.744C135.993 74.032 135.677 74.252 135.301 74.404C134.933 74.548 134.521 74.62 134.065 74.62C133.641 74.62 133.249 74.548 132.889 74.404C132.529 74.252 132.217 74.032 131.953 73.744C131.689 73.456 131.481 73.108 131.329 72.7C131.185 72.284 131.113 71.808 131.113 71.272C131.113 70.56 131.233 69.96 131.473 69.472C131.713 68.976 132.057 68.6 132.505 68.344C132.953 68.08 133.485 67.948 134.101 67.948C134.685 67.948 135.197 68.08 135.637 68.344C136.085 68.6 136.433 68.976 136.681 69.472C136.937 69.96 137.065 70.56 137.065 71.272ZM132.205 71.272C132.205 71.776 132.269 72.216 132.397 72.592C132.533 72.96 132.741 73.244 133.021 73.444C133.301 73.644 133.657 73.744 134.089 73.744C134.521 73.744 134.877 73.644 135.157 73.444C135.437 73.244 135.641 72.96 135.769 72.592C135.905 72.216 135.973 71.776 135.973 71.272C135.973 70.76 135.905 70.324 135.769 69.964C135.633 69.604 135.425 69.328 135.145 69.136C134.873 68.936 134.517 68.836 134.077 68.836C133.421 68.836 132.945 69.052 132.649 69.484C132.353 69.916 132.205 70.512 132.205 71.272ZM141.739 67.948C141.859 67.948 141.987 67.956 142.123 67.972C142.267 67.98 142.391 67.996 142.495 68.02L142.363 68.992C142.259 68.968 142.143 68.948 142.015 68.932C141.895 68.916 141.779 68.908 141.667 68.908C141.419 68.908 141.183 68.96 140.959 69.064C140.735 69.168 140.535 69.316 140.359 69.508C140.183 69.692 140.043 69.916 139.939 70.18C139.843 70.444 139.795 70.74 139.795 71.068V74.5H138.739V68.068H139.603L139.723 69.244H139.771C139.907 69.004 140.071 68.788 140.263 68.596C140.455 68.396 140.675 68.24 140.923 68.128C141.171 68.008 141.443 67.948 141.739 67.948Z" fill="#132A00"/>
<path d="M151.736 67.504C151.736 67.752 151.728 67.996 151.712 68.236C151.696 68.476 151.68 68.664 151.664 68.8H151.736C151.896 68.528 152.108 68.3 152.372 68.116C152.644 67.924 153 67.828 153.44 67.828C154.104 67.828 154.648 68.116 155.072 68.692C155.496 69.26 155.708 70.1 155.708 71.212C155.708 71.956 155.608 72.584 155.408 73.096C155.216 73.6 154.944 73.98 154.592 74.236C154.248 74.492 153.844 74.62 153.38 74.62C152.94 74.62 152.596 74.536 152.348 74.368C152.1 74.192 151.896 73.996 151.736 73.78H151.604L151.304 74.5H149.816V65.38H151.736V67.504ZM152.768 69.256C152.528 69.256 152.332 69.32 152.18 69.448C152.028 69.576 151.916 69.772 151.844 70.036C151.772 70.292 151.736 70.616 151.736 71.008V71.2C151.736 71.832 151.812 72.32 151.964 72.664C152.116 73 152.392 73.168 152.792 73.168C153.096 73.168 153.332 73 153.5 72.664C153.668 72.32 153.752 71.828 153.752 71.188C153.752 70.548 153.668 70.068 153.5 69.748C153.332 69.42 153.088 69.256 152.768 69.256ZM160.611 67.828C160.715 67.828 160.827 67.832 160.947 67.84C161.067 67.848 161.159 67.86 161.223 67.876L161.067 69.556C161.003 69.54 160.919 69.528 160.815 69.52C160.711 69.504 160.591 69.496 160.455 69.496C160.279 69.496 160.099 69.528 159.915 69.592C159.739 69.648 159.575 69.74 159.423 69.868C159.279 69.996 159.159 70.168 159.063 70.384C158.975 70.592 158.931 70.852 158.931 71.164V74.5H157.011V67.948H158.451L158.739 69.052H158.835C158.955 68.828 159.103 68.624 159.279 68.44C159.455 68.256 159.655 68.108 159.879 67.996C160.111 67.884 160.355 67.828 160.611 67.828ZM167.764 71.212C167.764 71.756 167.692 72.24 167.548 72.664C167.412 73.088 167.212 73.448 166.948 73.744C166.684 74.032 166.36 74.252 165.976 74.404C165.6 74.548 165.176 74.62 164.704 74.62C164.264 74.62 163.856 74.548 163.48 74.404C163.104 74.252 162.78 74.032 162.508 73.744C162.244 73.448 162.036 73.088 161.884 72.664C161.74 72.24 161.668 71.756 161.668 71.212C161.668 70.484 161.792 69.872 162.04 69.376C162.288 68.872 162.64 68.488 163.096 68.224C163.552 67.96 164.1 67.828 164.74 67.828C165.332 67.828 165.852 67.96 166.3 68.224C166.756 68.488 167.112 68.872 167.368 69.376C167.632 69.872 167.764 70.484 167.764 71.212ZM163.624 71.212C163.624 71.644 163.66 72.008 163.732 72.304C163.812 72.592 163.932 72.812 164.092 72.964C164.26 73.108 164.472 73.18 164.728 73.18C164.992 73.18 165.2 73.108 165.352 72.964C165.512 72.812 165.628 72.592 165.7 72.304C165.772 72.008 165.808 71.644 165.808 71.212C165.808 70.78 165.772 70.42 165.7 70.132C165.628 69.844 165.508 69.628 165.34 69.484C165.18 69.34 164.972 69.268 164.716 69.268C164.324 69.268 164.044 69.432 163.876 69.76C163.708 70.08 163.624 70.564 163.624 71.212ZM173.311 71.044C173.287 70.908 173.259 70.772 173.227 70.636C173.203 70.492 173.175 70.352 173.143 70.216C173.119 70.08 173.099 69.948 173.083 69.82C173.067 69.684 173.051 69.556 173.035 69.436H172.999C172.991 69.556 172.975 69.684 172.951 69.82C172.935 69.956 172.915 70.096 172.891 70.24C172.867 70.376 172.839 70.516 172.807 70.66C172.783 70.804 172.755 70.948 172.723 71.092L171.967 74.5H169.723L168.151 67.948H170.023L170.647 71.296C170.687 71.496 170.723 71.7 170.755 71.908C170.787 72.108 170.815 72.304 170.839 72.496C170.871 72.68 170.891 72.848 170.899 73H170.947C170.963 72.888 170.983 72.752 171.007 72.592C171.031 72.432 171.055 72.272 171.079 72.112C171.111 71.944 171.139 71.792 171.163 71.656C171.187 71.52 171.207 71.42 171.223 71.356L171.979 67.948H174.067L174.799 71.344C174.823 71.456 174.851 71.616 174.883 71.824C174.915 72.024 174.943 72.232 174.967 72.448C174.999 72.664 175.019 72.848 175.027 73H175.063C175.079 72.848 175.099 72.68 175.123 72.496C175.155 72.312 175.187 72.116 175.219 71.908C175.259 71.7 175.299 71.496 175.339 71.296L176.035 67.948H177.859L176.239 74.5H174.007L173.311 71.044ZM183.26 72.556C183.26 72.996 183.164 73.372 182.972 73.684C182.788 73.988 182.504 74.22 182.12 74.38C181.736 74.54 181.24 74.62 180.632 74.62C180.192 74.62 179.808 74.588 179.48 74.524C179.152 74.468 178.82 74.372 178.484 74.236V72.76C178.852 72.92 179.232 73.052 179.624 73.156C180.016 73.26 180.344 73.312 180.608 73.312C180.896 73.312 181.1 73.26 181.22 73.156C181.348 73.052 181.412 72.916 181.412 72.748C181.412 72.636 181.38 72.536 181.316 72.448C181.252 72.36 181.124 72.26 180.932 72.148C180.74 72.036 180.456 71.892 180.08 71.716C179.712 71.54 179.408 71.368 179.168 71.2C178.936 71.024 178.76 70.816 178.64 70.576C178.528 70.328 178.472 70.02 178.472 69.652C178.472 69.044 178.7 68.588 179.156 68.284C179.62 67.98 180.228 67.828 180.98 67.828C181.38 67.828 181.756 67.868 182.108 67.948C182.46 68.028 182.824 68.16 183.2 68.344L182.66 69.628C182.452 69.532 182.248 69.448 182.048 69.376C181.848 69.304 181.656 69.248 181.472 69.208C181.296 69.168 181.128 69.148 180.968 69.148C180.76 69.148 180.6 69.184 180.488 69.256C180.384 69.328 180.332 69.436 180.332 69.58C180.332 69.684 180.364 69.78 180.428 69.868C180.492 69.948 180.616 70.04 180.8 70.144C180.984 70.24 181.252 70.364 181.604 70.516C181.964 70.668 182.264 70.828 182.504 70.996C182.752 71.156 182.94 71.36 183.068 71.608C183.196 71.848 183.26 72.164 183.26 72.556ZM187.191 67.828C187.775 67.828 188.279 67.944 188.703 68.176C189.127 68.408 189.455 68.744 189.687 69.184C189.919 69.624 190.035 70.164 190.035 70.804V71.668H186.135C186.151 72.172 186.279 72.568 186.519 72.856C186.767 73.144 187.119 73.288 187.575 73.288C187.975 73.288 188.335 73.248 188.655 73.168C188.983 73.08 189.319 72.948 189.663 72.772V74.152C189.367 74.312 189.043 74.428 188.691 74.5C188.347 74.58 187.919 74.62 187.407 74.62C186.783 74.62 186.227 74.5 185.739 74.26C185.259 74.012 184.879 73.64 184.599 73.144C184.327 72.648 184.191 72.024 184.191 71.272C184.191 70.504 184.315 69.868 184.563 69.364C184.819 68.852 185.171 68.468 185.619 68.212C186.075 67.956 186.599 67.828 187.191 67.828ZM187.227 69.1C186.939 69.1 186.699 69.212 186.507 69.436C186.315 69.66 186.203 70.008 186.171 70.48H188.271C188.271 70.216 188.231 69.98 188.151 69.772C188.071 69.564 187.955 69.4 187.803 69.28C187.651 69.16 187.459 69.1 187.227 69.1Z" fill="#172624"/>
<path d="M25.52 91.59C25.52 92.0167 25.4167 92.38 25.21 92.68C25.0033 92.9733 24.7067 93.2 24.32 93.36C23.94 93.52 23.49 93.6 22.97 93.6C22.7033 93.6 22.4467 93.5867 22.2 93.56C21.96 93.5333 21.74 93.4967 21.54 93.45C21.34 93.3967 21.1633 93.3333 21.01 93.26V92.4C21.25 92.5067 21.5467 92.6033 21.9 92.69C22.26 92.7767 22.63 92.82 23.01 92.82C23.3633 92.82 23.66 92.7733 23.9 92.68C24.14 92.5867 24.32 92.4533 24.44 92.28C24.56 92.1067 24.62 91.9033 24.62 91.67C24.62 91.4367 24.57 91.24 24.47 91.08C24.37 90.92 24.1967 90.7733 23.95 90.64C23.71 90.5 23.3733 90.3533 22.94 90.2C22.6333 90.0867 22.3633 89.9667 22.13 89.84C21.9033 89.7067 21.7133 89.5567 21.56 89.39C21.4067 89.2233 21.29 89.0333 21.21 88.82C21.1367 88.6067 21.1 88.36 21.1 88.08C21.1 87.7 21.1967 87.3767 21.39 87.11C21.5833 86.8367 21.85 86.6267 22.19 86.48C22.5367 86.3333 22.9333 86.26 23.38 86.26C23.7733 86.26 24.1333 86.2967 24.46 86.37C24.7867 86.4433 25.0833 86.54 25.35 86.66L25.07 87.43C24.8233 87.3233 24.5533 87.2333 24.26 87.16C23.9733 87.0867 23.6733 87.05 23.36 87.05C23.06 87.05 22.81 87.0933 22.61 87.18C22.41 87.2667 22.26 87.39 22.16 87.55C22.06 87.7033 22.01 87.8833 22.01 88.09C22.01 88.33 22.06 88.53 22.16 88.69C22.26 88.85 22.4233 88.9933 22.65 89.12C22.8767 89.2467 23.1833 89.3833 23.57 89.53C23.99 89.6833 24.3433 89.85 24.63 90.03C24.9233 90.2033 25.1433 90.4133 25.29 90.66C25.4433 90.9067 25.52 91.2167 25.52 91.59ZM31.3183 88.14V93.5H30.5983L30.4683 92.79H30.4283C30.3149 92.9767 30.1683 93.13 29.9883 93.25C29.8083 93.37 29.6116 93.4567 29.3983 93.51C29.1849 93.57 28.9616 93.6 28.7283 93.6C28.3016 93.6 27.9416 93.5333 27.6483 93.4C27.3616 93.26 27.1449 93.0467 26.9983 92.76C26.8516 92.4733 26.7783 92.1033 26.7783 91.65V88.14H27.6683V91.59C27.6683 92.0167 27.7649 92.3367 27.9583 92.55C28.1516 92.7633 28.4516 92.87 28.8583 92.87C29.2583 92.87 29.5716 92.7967 29.7983 92.65C30.0316 92.4967 30.1949 92.2767 30.2883 91.99C30.3883 91.6967 30.4383 91.3433 30.4383 90.93V88.14H31.3183ZM35.5699 88.04C36.2299 88.04 36.7599 88.27 37.1599 88.73C37.5666 89.19 37.7699 89.8833 37.7699 90.81C37.7699 91.4167 37.6766 91.93 37.4899 92.35C37.3099 92.7633 37.0533 93.0767 36.7199 93.29C36.3933 93.4967 36.0066 93.6 35.5599 93.6C35.2866 93.6 35.0433 93.5633 34.8299 93.49C34.6166 93.4167 34.4333 93.3233 34.2799 93.21C34.1333 93.09 34.0066 92.96 33.8999 92.82H33.8399C33.8533 92.9333 33.8666 93.0767 33.8799 93.25C33.8933 93.4233 33.8999 93.5733 33.8999 93.7V95.9H33.0199V88.14H33.7399L33.8599 88.87H33.8999C34.0066 88.7167 34.1333 88.5767 34.2799 88.45C34.4333 88.3233 34.6133 88.2233 34.8199 88.15C35.0333 88.0767 35.2833 88.04 35.5699 88.04ZM35.4099 88.78C35.0499 88.78 34.7599 88.85 34.5399 88.99C34.3199 89.1233 34.1599 89.3267 34.0599 89.6C33.9599 89.8733 33.9066 90.22 33.8999 90.64V90.81C33.8999 91.25 33.9466 91.6233 34.0399 91.93C34.1333 92.2367 34.2899 92.47 34.5099 92.63C34.7366 92.79 35.0433 92.87 35.4299 92.87C35.7566 92.87 36.0233 92.78 36.2299 92.6C36.4433 92.42 36.5999 92.1767 36.6999 91.87C36.8066 91.5567 36.8599 91.2 36.8599 90.8C36.8599 90.1867 36.7399 89.6967 36.4999 89.33C36.2666 88.9633 35.9033 88.78 35.4099 88.78ZM41.7223 88.04C42.3823 88.04 42.9123 88.27 43.3123 88.73C43.7189 89.19 43.9223 89.8833 43.9223 90.81C43.9223 91.4167 43.8289 91.93 43.6423 92.35C43.4623 92.7633 43.2056 93.0767 42.8723 93.29C42.5456 93.4967 42.1589 93.6 41.7123 93.6C41.4389 93.6 41.1956 93.5633 40.9823 93.49C40.7689 93.4167 40.5856 93.3233 40.4323 93.21C40.2856 93.09 40.1589 92.96 40.0523 92.82H39.9923C40.0056 92.9333 40.0189 93.0767 40.0323 93.25C40.0456 93.4233 40.0523 93.5733 40.0523 93.7V95.9H39.1723V88.14H39.8923L40.0123 88.87H40.0523C40.1589 88.7167 40.2856 88.5767 40.4323 88.45C40.5856 88.3233 40.7656 88.2233 40.9723 88.15C41.1856 88.0767 41.4356 88.04 41.7223 88.04ZM41.5623 88.78C41.2023 88.78 40.9123 88.85 40.6923 88.99C40.4723 89.1233 40.3123 89.3267 40.2123 89.6C40.1123 89.8733 40.0589 90.22 40.0523 90.64V90.81C40.0523 91.25 40.0989 91.6233 40.1923 91.93C40.2856 92.2367 40.4423 92.47 40.6623 92.63C40.8889 92.79 41.1956 92.87 41.5823 92.87C41.9089 92.87 42.1756 92.78 42.3823 92.6C42.5956 92.42 42.7523 92.1767 42.8523 91.87C42.9589 91.5567 43.0123 91.2 43.0123 90.8C43.0123 90.1867 42.8923 89.6967 42.6523 89.33C42.4189 88.9633 42.0556 88.78 41.5623 88.78ZM49.9846 90.81C49.9846 91.2567 49.9246 91.6533 49.8046 92C49.6913 92.34 49.5246 92.63 49.3046 92.87C49.0913 93.11 48.8279 93.2933 48.5146 93.42C48.2079 93.54 47.8646 93.6 47.4846 93.6C47.1313 93.6 46.8046 93.54 46.5046 93.42C46.2046 93.2933 45.9446 93.11 45.7246 92.87C45.5046 92.63 45.3313 92.34 45.2046 92C45.0846 91.6533 45.0246 91.2567 45.0246 90.81C45.0246 90.2167 45.1246 89.7167 45.3246 89.31C45.5246 88.8967 45.8113 88.5833 46.1846 88.37C46.5579 88.15 47.0013 88.04 47.5146 88.04C48.0013 88.04 48.4279 88.15 48.7946 88.37C49.1679 88.5833 49.4579 88.8967 49.6646 89.31C49.8779 89.7167 49.9846 90.2167 49.9846 90.81ZM45.9346 90.81C45.9346 91.23 45.9879 91.5967 46.0946 91.91C46.2079 92.2167 46.3813 92.4533 46.6146 92.62C46.8479 92.7867 47.1446 92.87 47.5046 92.87C47.8646 92.87 48.1613 92.7867 48.3946 92.62C48.6279 92.4533 48.7979 92.2167 48.9046 91.91C49.0179 91.5967 49.0746 91.23 49.0746 90.81C49.0746 90.3833 49.0179 90.02 48.9046 89.72C48.7913 89.42 48.6179 89.19 48.3846 89.03C48.1579 88.8633 47.8613 88.78 47.4946 88.78C46.9479 88.78 46.5513 88.96 46.3046 89.32C46.0579 89.68 45.9346 90.1767 45.9346 90.81ZM53.8793 88.04C53.9793 88.04 54.086 88.0467 54.1993 88.06C54.3193 88.0667 54.4226 88.08 54.5093 88.1L54.3993 88.91C54.3126 88.89 54.216 88.8733 54.1093 88.86C54.0093 88.8467 53.9126 88.84 53.8193 88.84C53.6126 88.84 53.416 88.8833 53.2293 88.97C53.0426 89.0567 52.876 89.18 52.7293 89.34C52.5826 89.4933 52.466 89.68 52.3793 89.9C52.2993 90.12 52.2593 90.3667 52.2593 90.64V93.5H51.3793V88.14H52.0993L52.1993 89.12H52.2393C52.3526 88.92 52.4893 88.74 52.6493 88.58C52.8093 88.4133 52.9926 88.2833 53.1993 88.19C53.406 88.09 53.6326 88.04 53.8793 88.04ZM57.3002 92.88C57.4335 92.88 57.5702 92.87 57.7102 92.85C57.8502 92.8233 57.9635 92.7967 58.0502 92.77V93.44C57.9568 93.4867 57.8235 93.5233 57.6502 93.55C57.4768 93.5833 57.3102 93.6 57.1502 93.6C56.8702 93.6 56.6102 93.5533 56.3702 93.46C56.1368 93.36 55.9468 93.19 55.8002 92.95C55.6535 92.71 55.5802 92.3733 55.5802 91.94V88.82H54.8202V88.4L55.5902 88.05L55.9402 86.91H56.4602V88.14H58.0102V88.82H56.4602V91.92C56.4602 92.2467 56.5368 92.49 56.6902 92.65C56.8502 92.8033 57.0535 92.88 57.3002 92.88ZM62.6134 92.02C62.6134 92.3667 62.5268 92.6567 62.3534 92.89C62.1801 93.1233 61.9334 93.3 61.6134 93.42C61.2934 93.54 60.9134 93.6 60.4734 93.6C60.1001 93.6 59.7768 93.57 59.5034 93.51C59.2368 93.45 59.0001 93.3667 58.7934 93.26V92.46C59.0068 92.5667 59.2634 92.6667 59.5634 92.76C59.8701 92.8467 60.1801 92.89 60.4934 92.89C60.9401 92.89 61.2634 92.82 61.4634 92.68C61.6634 92.5333 61.7634 92.34 61.7634 92.1C61.7634 91.9667 61.7268 91.8467 61.6534 91.74C61.5801 91.6333 61.4468 91.5267 61.2534 91.42C61.0668 91.3133 60.7968 91.1933 60.4434 91.06C60.0968 90.9267 59.8001 90.7933 59.5534 90.66C59.3068 90.5267 59.1168 90.3667 58.9834 90.18C58.8501 89.9933 58.7834 89.7533 58.7834 89.46C58.7834 89.0067 58.9668 88.6567 59.3334 88.41C59.7068 88.1633 60.1934 88.04 60.7934 88.04C61.1201 88.04 61.4234 88.0733 61.7034 88.14C61.9901 88.2 62.2568 88.2867 62.5034 88.4L62.2034 89.1C62.0568 89.0333 61.9001 88.9767 61.7334 88.93C61.5734 88.8767 61.4101 88.8367 61.2434 88.81C61.0768 88.7767 60.9068 88.76 60.7334 88.76C60.3734 88.76 60.0968 88.82 59.9034 88.94C59.7168 89.0533 59.6234 89.21 59.6234 89.41C59.6234 89.5567 59.6668 89.6833 59.7534 89.79C59.8401 89.89 59.9834 89.99 60.1834 90.09C60.3901 90.1833 60.6634 90.2967 61.0034 90.43C61.3434 90.5567 61.6334 90.6867 61.8734 90.82C62.1134 90.9533 62.2968 91.1167 62.4234 91.31C62.5501 91.4967 62.6134 91.7333 62.6134 92.02ZM63.7786 92.96C63.7786 92.7133 63.8386 92.54 63.9586 92.44C64.0786 92.34 64.2219 92.29 64.3886 92.29C64.5619 92.29 64.7086 92.34 64.8286 92.44C64.9553 92.54 65.0186 92.7133 65.0186 92.96C65.0186 93.2 64.9553 93.3733 64.8286 93.48C64.7086 93.5867 64.5619 93.64 64.3886 93.64C64.2219 93.64 64.0786 93.5867 63.9586 93.48C63.8386 93.3733 63.7786 93.2 63.7786 92.96ZM63.7786 88.68C63.7786 88.4267 63.8386 88.25 63.9586 88.15C64.0786 88.05 64.2219 88 64.3886 88C64.5619 88 64.7086 88.05 64.8286 88.15C64.9553 88.25 65.0186 88.4267 65.0186 88.68C65.0186 88.92 64.9553 89.0933 64.8286 89.2C64.7086 89.3067 64.5619 89.36 64.3886 89.36C64.2219 89.36 64.0786 89.3067 63.9586 89.2C63.8386 89.0933 63.7786 88.92 63.7786 88.68ZM71.192 86.36C72.1254 86.36 72.8054 86.5433 73.232 86.91C73.6587 87.2767 73.872 87.7933 73.872 88.46C73.872 88.7533 73.822 89.0367 73.722 89.31C73.6287 89.5767 73.472 89.8167 73.252 90.03C73.032 90.2433 72.7387 90.4133 72.372 90.54C72.0054 90.66 71.5554 90.72 71.022 90.72H70.202V93.5H69.302V86.36H71.192ZM71.112 87.13H70.202V89.95H70.922C71.3754 89.95 71.752 89.9033 72.052 89.81C72.352 89.71 72.5754 89.5533 72.722 89.34C72.8687 89.1267 72.942 88.8467 72.942 88.5C72.942 88.04 72.7954 87.6967 72.502 87.47C72.2087 87.2433 71.7454 87.13 71.112 87.13ZM81.0167 93.5H79.9667L76.1467 87.57H76.1067C76.1134 87.69 76.1201 87.8233 76.1267 87.97C76.1401 88.1167 76.1501 88.2767 76.1567 88.45C76.1634 88.6167 76.1701 88.79 76.1767 88.97C76.1834 89.15 76.1867 89.33 76.1867 89.51V93.5H75.3567V86.36H76.3967L80.2067 92.27H80.2467C80.2401 92.19 80.2334 92.08 80.2267 91.94C80.2201 91.7933 80.2134 91.6333 80.2067 91.46C80.2001 91.28 80.1934 91.0967 80.1867 90.91C80.1801 90.7233 80.1767 90.55 80.1767 90.39V86.36H81.0167V93.5ZM86.0544 89.73H88.5244V93.23C88.1377 93.3567 87.7477 93.45 87.3544 93.51C86.961 93.57 86.5144 93.6 86.0144 93.6C85.2744 93.6 84.651 93.4533 84.1444 93.16C83.6377 92.86 83.251 92.4367 82.9844 91.89C82.7244 91.3367 82.5944 90.6833 82.5944 89.93C82.5944 89.1833 82.741 88.5367 83.0344 87.99C83.3277 87.4433 83.7477 87.02 84.2944 86.72C84.8477 86.4133 85.5144 86.26 86.2944 86.26C86.6944 86.26 87.071 86.2967 87.4244 86.37C87.7844 86.4433 88.1177 86.5467 88.4244 86.68L88.0844 87.46C87.831 87.3467 87.5444 87.25 87.2244 87.17C86.911 87.09 86.5844 87.05 86.2444 87.05C85.6777 87.05 85.191 87.1667 84.7844 87.4C84.3777 87.6333 84.0677 87.9667 83.8544 88.4C83.641 88.8267 83.5344 89.3367 83.5344 89.93C83.5344 90.4967 83.6244 91 83.8044 91.44C83.991 91.8733 84.281 92.2133 84.6744 92.46C85.0677 92.7 85.5844 92.82 86.2244 92.82C86.4377 92.82 86.6244 92.8133 86.7844 92.8C86.951 92.78 87.101 92.7567 87.2344 92.73C87.3744 92.7033 87.5044 92.6767 87.6244 92.65V90.53H86.0544V89.73ZM91.1798 92.45C91.1198 92.6833 91.0431 92.9367 90.9498 93.21C90.8564 93.4833 90.7531 93.7533 90.6398 94.02C90.5331 94.2933 90.4264 94.55 90.3198 94.79H89.6698C89.7364 94.5367 89.7998 94.2633 89.8598 93.97C89.9264 93.6833 89.9864 93.4 90.0398 93.12C90.0931 92.8333 90.1364 92.5733 90.1698 92.34H91.1098L91.1798 92.45ZM94.4932 95.4C94.3332 95.4 94.1932 95.3867 94.0732 95.36C93.9532 95.34 93.8465 95.31 93.7532 95.27V94.51C93.8599 94.5367 93.9732 94.56 94.0932 94.58C94.2132 94.6 94.3399 94.61 94.4732 94.61C94.6399 94.61 94.7965 94.5767 94.9432 94.51C95.0965 94.4433 95.2199 94.3267 95.3132 94.16C95.4065 93.9933 95.4532 93.76 95.4532 93.46V86.36H96.3532V93.39C96.3532 93.85 96.2765 94.2267 96.1232 94.52C95.9699 94.82 95.7532 95.04 95.4732 95.18C95.1932 95.3267 94.8665 95.4 94.4932 95.4ZM100.128 86.36C101.061 86.36 101.741 86.5433 102.168 86.91C102.594 87.2767 102.808 87.7933 102.808 88.46C102.808 88.7533 102.758 89.0367 102.658 89.31C102.564 89.5767 102.408 89.8167 102.188 90.03C101.968 90.2433 101.674 90.4133 101.308 90.54C100.941 90.66 100.491 90.72 99.9576 90.72H99.1376V93.5H98.2376V86.36H100.128ZM100.048 87.13H99.1376V89.95H99.8576C100.311 89.95 100.688 89.9033 100.988 89.81C101.288 89.71 101.511 89.5533 101.658 89.34C101.804 89.1267 101.878 88.8467 101.878 88.5C101.878 88.04 101.731 87.6967 101.438 87.47C101.144 87.2433 100.681 87.13 100.048 87.13ZM107.392 89.73H109.862V93.23C109.476 93.3567 109.086 93.45 108.692 93.51C108.299 93.57 107.852 93.6 107.352 93.6C106.612 93.6 105.989 93.4533 105.482 93.16C104.976 92.86 104.589 92.4367 104.322 91.89C104.062 91.3367 103.932 90.6833 103.932 89.93C103.932 89.1833 104.079 88.5367 104.372 87.99C104.666 87.4433 105.086 87.02 105.632 86.72C106.186 86.4133 106.852 86.26 107.632 86.26C108.032 86.26 108.409 86.2967 108.762 86.37C109.122 86.4433 109.456 86.5467 109.762 86.68L109.422 87.46C109.169 87.3467 108.882 87.25 108.562 87.17C108.249 87.09 107.922 87.05 107.582 87.05C107.016 87.05 106.529 87.1667 106.122 87.4C105.716 87.6333 105.406 87.9667 105.192 88.4C104.979 88.8267 104.872 89.3367 104.872 89.93C104.872 90.4967 104.962 91 105.142 91.44C105.329 91.8733 105.619 92.2133 106.012 92.46C106.406 92.7 106.922 92.82 107.562 92.82C107.776 92.82 107.962 92.8133 108.122 92.8C108.289 92.78 108.439 92.7567 108.572 92.73C108.712 92.7033 108.842 92.6767 108.962 92.65V90.53H107.392V89.73ZM112.518 92.45C112.458 92.6833 112.381 92.9367 112.288 93.21C112.194 93.4833 112.091 93.7533 111.978 94.02C111.871 94.2933 111.764 94.55 111.658 94.79H111.008C111.074 94.5367 111.138 94.2633 111.198 93.97C111.264 93.6833 111.324 93.4 111.378 93.12C111.431 92.8333 111.474 92.5733 111.508 92.34H112.448L112.518 92.45ZM115.831 95.4C115.671 95.4 115.531 95.3867 115.411 95.36C115.291 95.34 115.184 95.31 115.091 95.27V94.51C115.198 94.5367 115.311 94.56 115.431 94.58C115.551 94.6 115.678 94.61 115.811 94.61C115.978 94.61 116.134 94.5767 116.281 94.51C116.434 94.4433 116.558 94.3267 116.651 94.16C116.744 93.9933 116.791 93.76 116.791 93.46V86.36H117.691V93.39C117.691 93.85 117.614 94.2267 117.461 94.52C117.308 94.82 117.091 95.04 116.811 95.18C116.531 95.3267 116.204 95.4 115.831 95.4ZM121.465 86.36C122.399 86.36 123.079 86.5433 123.505 86.91C123.932 87.2767 124.145 87.7933 124.145 88.46C124.145 88.7533 124.095 89.0367 123.995 89.31C123.902 89.5767 123.745 89.8167 123.525 90.03C123.305 90.2433 123.012 90.4133 122.645 90.54C122.279 90.66 121.829 90.72 121.295 90.72H120.475V93.5H119.575V86.36H121.465ZM121.385 87.13H120.475V89.95H121.195C121.649 89.95 122.025 89.9033 122.325 89.81C122.625 89.71 122.849 89.5533 122.995 89.34C123.142 89.1267 123.215 88.8467 123.215 88.5C123.215 88.04 123.069 87.6967 122.775 87.47C122.482 87.2433 122.019 87.13 121.385 87.13ZM129.62 93.5H125.63V86.36H129.62V87.15H126.53V89.38H129.44V90.16H126.53V92.71H129.62V93.5ZM134.287 89.73H136.757V93.23C136.37 93.3567 135.98 93.45 135.587 93.51C135.193 93.57 134.747 93.6 134.247 93.6C133.507 93.6 132.883 93.4533 132.377 93.16C131.87 92.86 131.483 92.4367 131.217 91.89C130.957 91.3367 130.827 90.6833 130.827 89.93C130.827 89.1833 130.973 88.5367 131.267 87.99C131.56 87.4433 131.98 87.02 132.527 86.72C133.08 86.4133 133.747 86.26 134.527 86.26C134.927 86.26 135.303 86.2967 135.657 86.37C136.017 86.4433 136.35 86.5467 136.657 86.68L136.317 87.46C136.063 87.3467 135.777 87.25 135.457 87.17C135.143 87.09 134.817 87.05 134.477 87.05C133.91 87.05 133.423 87.1667 133.017 87.4C132.61 87.6333 132.3 87.9667 132.087 88.4C131.873 88.8267 131.767 89.3367 131.767 89.93C131.767 90.4967 131.857 91 132.037 91.44C132.223 91.8733 132.513 92.2133 132.907 92.46C133.3 92.7 133.817 92.82 134.457 92.82C134.67 92.82 134.857 92.8133 135.017 92.8C135.183 92.78 135.333 92.7567 135.467 92.73C135.607 92.7033 135.737 92.6767 135.857 92.65V90.53H134.287V89.73ZM139.412 92.45C139.352 92.6833 139.276 92.9367 139.182 93.21C139.089 93.4833 138.986 93.7533 138.872 94.02C138.766 94.2933 138.659 94.55 138.552 94.79H137.902C137.969 94.5367 138.032 94.2633 138.092 93.97C138.159 93.6833 138.219 93.4 138.272 93.12C138.326 92.8333 138.369 92.5733 138.402 92.34H139.342L139.412 92.45ZM151.936 86.36L150.036 93.5H149.126L147.736 88.82C147.696 88.68 147.656 88.5367 147.616 88.39C147.576 88.2433 147.539 88.1033 147.506 87.97C147.472 87.8367 147.442 87.7233 147.416 87.63C147.396 87.53 147.382 87.4567 147.376 87.41C147.369 87.4567 147.356 87.53 147.336 87.63C147.322 87.7233 147.299 87.8367 147.266 87.97C147.232 88.1033 147.196 88.2467 147.156 88.4C147.122 88.5467 147.082 88.6967 147.036 88.85L145.686 93.5H144.776L142.886 86.36H143.826L144.936 90.72C144.976 90.8733 145.012 91.0267 145.046 91.18C145.079 91.3267 145.109 91.4733 145.136 91.62C145.169 91.76 145.196 91.8967 145.216 92.03C145.236 92.1633 145.256 92.2933 145.276 92.42C145.296 92.2867 145.316 92.15 145.336 92.01C145.362 91.87 145.392 91.7267 145.426 91.58C145.459 91.4267 145.496 91.2733 145.536 91.12C145.576 90.9667 145.616 90.8167 145.656 90.67L146.916 86.36H147.846L149.156 90.7C149.202 90.8533 149.246 91.01 149.286 91.17C149.326 91.3233 149.362 91.4733 149.396 91.62C149.429 91.7667 149.456 91.91 149.476 92.05C149.502 92.1833 149.526 92.3067 149.546 92.42C149.566 92.2533 149.592 92.08 149.626 91.9C149.659 91.7133 149.699 91.52 149.746 91.32C149.792 91.12 149.842 90.9167 149.896 90.71L150.996 86.36H151.936ZM157.023 93.5H153.033V86.36H157.023V87.15H153.933V89.38H156.843V90.16H153.933V92.71H157.023V93.5ZM160.629 86.36C161.222 86.36 161.719 86.4167 162.119 86.53C162.526 86.6433 162.829 86.83 163.029 87.09C163.236 87.35 163.339 87.6967 163.339 88.13C163.339 88.41 163.286 88.66 163.179 88.88C163.079 89.0933 162.926 89.2733 162.719 89.42C162.519 89.56 162.272 89.6567 161.979 89.71V89.76C162.279 89.8067 162.549 89.8933 162.789 90.02C163.036 90.1467 163.229 90.3267 163.369 90.56C163.509 90.7933 163.579 91.0967 163.579 91.47C163.579 91.9033 163.479 92.2733 163.279 92.58C163.079 92.88 162.792 93.11 162.419 93.27C162.052 93.4233 161.612 93.5 161.099 93.5H158.589V86.36H160.629ZM160.809 89.4C161.422 89.4 161.842 89.3033 162.069 89.11C162.296 88.91 162.409 88.6167 162.409 88.23C162.409 87.8367 162.269 87.5567 161.989 87.39C161.716 87.2167 161.276 87.13 160.669 87.13H159.489V89.4H160.809ZM159.489 90.15V92.74H160.929C161.562 92.74 162.002 92.6167 162.249 92.37C162.496 92.1233 162.619 91.8 162.619 91.4C162.619 91.1467 162.562 90.9267 162.449 90.74C162.342 90.5533 162.159 90.41 161.899 90.31C161.646 90.2033 161.299 90.15 160.859 90.15H159.489ZM166.983 86.36C167.916 86.36 168.596 86.5433 169.023 86.91C169.45 87.2767 169.663 87.7933 169.663 88.46C169.663 88.7533 169.613 89.0367 169.513 89.31C169.42 89.5767 169.263 89.8167 169.043 90.03C168.823 90.2433 168.53 90.4133 168.163 90.54C167.796 90.66 167.346 90.72 166.813 90.72H165.993V93.5H165.093V86.36H166.983ZM166.903 87.13H165.993V89.95H166.713C167.166 89.95 167.543 89.9033 167.843 89.81C168.143 89.71 168.366 89.5533 168.513 89.34C168.66 89.1267 168.733 88.8467 168.733 88.5C168.733 88.04 168.586 87.6967 168.293 87.47C168 87.2433 167.536 87.13 166.903 87.13Z" fill="#969DB2"/>
<path d="M85.12 112.5L82.77 106.24H82.73C82.7433 106.373 82.7533 106.543 82.76 106.75C82.7733 106.957 82.7833 107.183 82.79 107.43C82.7967 107.67 82.8 107.917 82.8 108.17V112.5H81.97V105.36H83.3L85.5 111.21H85.54L87.78 105.36H89.1V112.5H88.21V108.11C88.21 107.877 88.2133 107.647 88.22 107.42C88.2267 107.187 88.2367 106.97 88.25 106.77C88.2633 106.563 88.2733 106.39 88.28 106.25H88.24L85.86 112.5H85.12ZM92.9523 107.05C93.6056 107.05 94.0889 107.193 94.4023 107.48C94.7156 107.767 94.8723 108.223 94.8723 108.85V112.5H94.2323L94.0623 111.74H94.0223C93.8689 111.933 93.7089 112.097 93.5423 112.23C93.3823 112.357 93.1956 112.45 92.9823 112.51C92.7756 112.57 92.5223 112.6 92.2223 112.6C91.9023 112.6 91.6123 112.543 91.3523 112.43C91.0989 112.317 90.8989 112.143 90.7523 111.91C90.6056 111.67 90.5323 111.37 90.5323 111.01C90.5323 110.477 90.7423 110.067 91.1623 109.78C91.5823 109.487 92.2289 109.327 93.1023 109.3L94.0123 109.27V108.95C94.0123 108.503 93.9156 108.193 93.7223 108.02C93.5289 107.847 93.2556 107.76 92.9023 107.76C92.6223 107.76 92.3556 107.803 92.1023 107.89C91.8489 107.97 91.6123 108.063 91.3923 108.17L91.1223 107.51C91.3556 107.383 91.6323 107.277 91.9523 107.19C92.2723 107.097 92.6056 107.05 92.9523 107.05ZM93.2123 109.91C92.5456 109.937 92.0823 110.043 91.8223 110.23C91.5689 110.417 91.4423 110.68 91.4423 111.02C91.4423 111.32 91.5323 111.54 91.7123 111.68C91.8989 111.82 92.1356 111.89 92.4223 111.89C92.8756 111.89 93.2523 111.767 93.5523 111.52C93.8523 111.267 94.0023 110.88 94.0023 110.36V109.88L93.2123 109.91ZM97.7977 109.76L95.9477 107.14H96.9477L98.3277 109.16L99.6977 107.14H100.688L98.8377 109.76L100.788 112.5H99.7877L98.3277 110.36L96.8477 112.5H95.8577L97.7977 109.76ZM108.498 107.03C108.498 107.35 108.438 107.627 108.318 107.86C108.198 108.093 108.025 108.283 107.798 108.43C107.578 108.577 107.318 108.68 107.018 108.74V108.78C107.592 108.847 108.018 109.027 108.298 109.32C108.578 109.613 108.718 109.997 108.718 110.47C108.718 110.883 108.622 111.253 108.428 111.58C108.235 111.9 107.935 112.15 107.528 112.33C107.128 112.51 106.612 112.6 105.978 112.6C105.605 112.6 105.258 112.57 104.938 112.51C104.618 112.457 104.312 112.357 104.018 112.21V111.39C104.318 111.537 104.642 111.653 104.988 111.74C105.335 111.82 105.668 111.86 105.988 111.86C106.628 111.86 107.088 111.737 107.368 111.49C107.655 111.237 107.798 110.89 107.798 110.45C107.798 110.15 107.718 109.91 107.558 109.73C107.405 109.543 107.178 109.407 106.878 109.32C106.578 109.233 106.218 109.19 105.798 109.19H105.108V108.44H105.808C106.202 108.44 106.528 108.383 106.788 108.27C107.055 108.157 107.255 108 107.388 107.8C107.528 107.593 107.598 107.357 107.598 107.09C107.598 106.743 107.482 106.477 107.248 106.29C107.015 106.097 106.698 106 106.298 106C106.045 106 105.815 106.027 105.608 106.08C105.402 106.127 105.208 106.197 105.028 106.29C104.855 106.377 104.678 106.48 104.498 106.6L104.058 106C104.232 105.867 104.428 105.743 104.648 105.63C104.875 105.517 105.125 105.427 105.398 105.36C105.672 105.293 105.968 105.26 106.288 105.26C107.035 105.26 107.588 105.427 107.948 105.76C108.315 106.093 108.498 106.517 108.498 107.03Z" fill="#969DB2"/>
</svg>
