<svg width="26" height="26" viewBox="0 0 26 26" fill="none" xmlns="http://www.w3.org/2000/svg">
<path d="M13 2.4375C10.9109 2.4375 8.86879 3.05698 7.13179 4.2176C5.3948 5.37822 4.04098 7.02786 3.24153 8.95791C2.44208 10.8879 2.2329 13.0117 2.64046 15.0606C3.04802 17.1096 4.054 18.9916 5.53119 20.4688C7.00838 21.946 8.89044 22.952 10.9394 23.3595C12.9883 23.7671 15.1121 23.5579 17.0421 22.7585C18.9721 21.959 20.6218 20.6052 21.7824 18.8682C22.943 17.1312 23.5625 15.0891 23.5625 13C23.5595 10.1996 22.4458 7.51466 20.4656 5.53445C18.4853 3.55424 15.8004 2.44046 13 2.4375ZM16.8248 15.6752C16.9003 15.7506 16.9602 15.8403 17.0011 15.9389C17.0419 16.0375 17.063 16.1432 17.063 16.25C17.063 16.3568 17.0419 16.4625 17.0011 16.5611C16.9602 16.6597 16.9003 16.7494 16.8248 16.8248C16.7494 16.9003 16.6597 16.9602 16.5611 17.0011C16.4625 17.0419 16.3568 17.063 16.25 17.063C16.1432 17.063 16.0375 17.0419 15.9389 17.0011C15.8403 16.9602 15.7506 16.9003 15.6752 16.8248L13 14.1487L10.3248 16.8248C10.2494 16.9003 10.1597 16.9602 10.0611 17.0011C9.96248 17.0419 9.85676 17.063 9.75 17.063C9.64325 17.063 9.53753 17.0419 9.4389 17.0011C9.34027 16.9602 9.25065 16.9003 9.17516 16.8248C9.09967 16.7494 9.03979 16.6597 8.99893 16.5611C8.95808 16.4625 8.93705 16.3568 8.93705 16.25C8.93705 16.1432 8.95808 16.0375 8.99893 15.9389C9.03979 15.8403 9.09967 15.7506 9.17516 15.6752L11.8513 13L9.17516 10.3248C9.0227 10.1724 8.93705 9.96561 8.93705 9.75C8.93705 9.53439 9.0227 9.32761 9.17516 9.17516C9.32762 9.0227 9.5344 8.93705 9.75 8.93705C9.96561 8.93705 10.1724 9.0227 10.3248 9.17516L13 11.8513L15.6752 9.17516C15.7506 9.09967 15.8403 9.03978 15.9389 8.99893C16.0375 8.95808 16.1432 8.93705 16.25 8.93705C16.3568 8.93705 16.4625 8.95808 16.5611 8.99893C16.6597 9.03978 16.7494 9.09967 16.8248 9.17516C16.9003 9.25065 16.9602 9.34026 17.0011 9.4389C17.0419 9.53753 17.063 9.64324 17.063 9.75C17.063 9.85676 17.0419 9.96247 17.0011 10.0611C16.9602 10.1597 16.9003 10.2494 16.8248 10.3248L14.1487 13L16.8248 15.6752Z" fill="#E94444"/>
<path d="M12.9558 14.1044L10.2806 16.7806C10.2109 16.8503 10.1282 16.9056 10.0371 16.9433C9.9461 16.981 9.84851 17.0004 9.74996 17.0004C9.65141 17.0004 9.55383 16.981 9.46278 16.9433C9.37173 16.9056 9.289 16.8503 9.21931 16.7806C9.14963 16.7109 9.09435 16.6282 9.05664 16.5371C9.01892 16.4461 8.99951 16.3485 8.99951 16.25C8.99951 16.1514 9.01892 16.0538 9.05664 15.9628C9.09435 15.8717 9.14962 15.789 9.21931 15.7193C9.21931 15.7193 9.21931 15.7193 9.21931 15.7193L11.8955 13.0442L11.9397 13L11.8955 12.9558L9.21931 10.2806C9.07858 10.1399 8.99951 9.949 8.99951 9.74996C8.99951 9.55093 9.07858 9.36005 9.21931 9.21931C9.36005 9.07858 9.55093 8.99951 9.74996 8.99951C9.949 8.99951 10.1399 9.07858 10.2806 9.21931L12.9558 11.8955L13 11.9397L13.0442 11.8955L15.7193 9.21931C15.7193 9.21931 15.7193 9.21931 15.7193 9.21931C15.789 9.14962 15.8717 9.09435 15.9628 9.05664C16.0538 9.01892 16.1514 8.99951 16.25 8.99951C16.3485 8.99951 16.4461 9.01892 16.5371 9.05664C16.6282 9.09435 16.7109 9.14963 16.7806 9.21931C16.8503 9.289 16.9056 9.37173 16.9433 9.46278C16.981 9.55383 17.0004 9.65141 17.0004 9.74996C17.0004 9.84851 16.981 9.9461 16.9433 10.0371C16.9056 10.1282 16.8503 10.2109 16.7806 10.2806L14.1044 12.9558L14.0602 13L14.1044 13.0442L16.7806 15.7193C16.7806 15.7193 16.7806 15.7193 16.7806 15.7193C16.8503 15.789 16.9056 15.8717 16.9433 15.9628C16.981 16.0538 17.0004 16.1514 17.0004 16.25C17.0004 16.3485 16.981 16.4461 16.9433 16.5371C16.9056 16.6282 16.8503 16.7109 16.7806 16.7806C16.7109 16.8503 16.6282 16.9056 16.5371 16.9433C16.4461 16.981 16.3485 17.0004 16.25 17.0004C16.1514 17.0004 16.0538 16.981 15.9628 16.9433C15.8717 16.9056 15.789 16.8503 15.7193 16.7806C15.7193 16.7806 15.7193 16.7806 15.7193 16.7806L13.0442 14.1044L13 14.0602L12.9558 14.1044Z" fill="white" stroke="#E94444" stroke-width="0.125"/>
</svg>
