<svg width="140" height="38" viewBox="0 0 140 38" fill="none" xmlns="http://www.w3.org/2000/svg">
<rect x="0.5" y="0.5" width="139" height="37" rx="3.5" fill="#D19A1D" fill-opacity="0.1"/>
<rect x="0.5" y="0.5" width="139" height="37" rx="3.5" stroke="#D19A1D"/>
<path d="M24.2502 17.5002C24.2502 17.6991 24.1712 17.8899 24.0305 18.0305C23.8899 18.1712 23.6991 18.2502 23.5002 18.2502H21.2502V20.5002C21.2502 20.6991 21.1712 20.8899 21.0305 21.0305C20.8899 21.1712 20.6991 21.2502 20.5002 21.2502C20.3013 21.2502 20.1105 21.1712 19.9699 21.0305C19.8292 20.8899 19.7502 20.6991 19.7502 20.5002V18.2502H17.5002C17.3013 18.2502 17.1105 18.1712 16.9699 18.0305C16.8292 17.8899 16.7502 17.6991 16.7502 17.5002C16.7502 17.3013 16.8292 17.1105 16.9699 16.9699C17.1105 16.8292 17.3013 16.7502 17.5002 16.7502H19.7502V14.5002C19.7502 14.3013 19.8292 14.1105 19.9699 13.9699C20.1105 13.8292 20.3013 13.7502 20.5002 13.7502C20.6991 13.7502 20.8899 13.8292 21.0305 13.9699C21.1712 14.1105 21.2502 14.3013 21.2502 14.5002V16.7502H23.5002C23.6991 16.7502 23.8899 16.8292 24.0305 16.9699C24.1712 17.1105 24.2502 17.3013 24.2502 17.5002ZM31.5308 28.5308C31.4612 28.6006 31.3785 28.6559 31.2874 28.6936C31.1964 28.7314 31.0988 28.7508 31.0002 28.7508C30.9017 28.7508 30.8041 28.7314 30.713 28.6936C30.622 28.6559 30.5392 28.6006 30.4696 28.5308L25.7765 23.8368C24.1431 25.1973 22.048 25.8757 19.9272 25.7309C17.8063 25.5861 15.8229 24.6293 14.3896 23.0593C12.9562 21.4894 12.1833 19.4274 12.2316 17.3021C12.2799 15.1769 13.1457 13.1521 14.6489 11.6489C16.1521 10.1457 18.1769 9.27993 20.3021 9.23163C22.4274 9.18333 24.4894 9.95623 26.0593 11.3896C27.6293 12.8229 28.5861 14.8063 28.7309 16.9272C28.8757 19.048 28.1973 21.1431 26.8368 22.7765L31.5308 27.4696C31.6006 27.5392 31.6559 27.622 31.6936 27.713C31.7314 27.8041 31.7508 27.9017 31.7508 28.0002C31.7508 28.0988 31.7314 28.1964 31.6936 28.2874C31.6559 28.3785 31.6006 28.4612 31.5308 28.5308ZM20.5002 24.2502C21.8352 24.2502 23.1403 23.8543 24.2503 23.1126C25.3603 22.3709 26.2255 21.3167 26.7364 20.0833C27.2473 18.8499 27.381 17.4927 27.1205 16.1834C26.8601 14.874 26.2172 13.6712 25.2732 12.7272C24.3292 11.7832 23.1264 11.1404 21.8171 10.8799C20.5077 10.6195 19.1505 10.7531 17.9171 11.264C16.6837 11.7749 15.6295 12.6401 14.8878 13.7501C14.1461 14.8601 13.7502 16.1652 13.7502 17.5002C13.7522 19.2898 14.464 21.0056 15.7294 22.271C16.9949 23.5364 18.7106 24.2482 20.5002 24.2502Z" fill="black"/>
<path d="M47.546 24H40.476V22.922L45.6 15.306H40.63V14.004H47.42V15.082L42.296 22.698H47.546V24ZM55.8511 20.22C55.8511 20.8453 55.7671 21.4007 55.5991 21.886C55.4311 22.3713 55.1931 22.782 54.8851 23.118C54.5771 23.454 54.2037 23.7107 53.7651 23.888C53.3264 24.056 52.8317 24.14 52.2811 24.14C51.7771 24.14 51.3104 24.056 50.8811 23.888C50.4517 23.7107 50.0784 23.454 49.7611 23.118C49.4531 22.782 49.2104 22.3713 49.0331 21.886C48.8557 21.4007 48.7671 20.8407 48.7671 20.206C48.7671 19.3753 48.9071 18.6707 49.1871 18.092C49.4764 17.5133 49.8871 17.0747 50.4191 16.776C50.9604 16.468 51.5951 16.314 52.3231 16.314C53.0137 16.314 53.6204 16.468 54.1431 16.776C54.6751 17.0747 55.0904 17.5133 55.3891 18.092C55.6971 18.6707 55.8511 19.38 55.8511 20.22ZM50.2931 20.22C50.2931 20.78 50.3631 21.2653 50.5031 21.676C50.6431 22.0773 50.8624 22.3853 51.1611 22.6C51.4597 22.8147 51.8424 22.922 52.3091 22.922C52.7757 22.922 53.1584 22.8147 53.4571 22.6C53.7557 22.3853 53.9751 22.0773 54.1151 21.676C54.2551 21.2653 54.3251 20.78 54.3251 20.22C54.3251 19.6413 54.2504 19.156 54.1011 18.764C53.9611 18.372 53.7417 18.0733 53.4431 17.868C53.1537 17.6533 52.7711 17.546 52.2951 17.546C51.5951 17.546 51.0864 17.7793 50.7691 18.246C50.4517 18.7127 50.2931 19.3707 50.2931 20.22ZM64.3823 20.22C64.3823 20.8453 64.2983 21.4007 64.1303 21.886C63.9623 22.3713 63.7243 22.782 63.4163 23.118C63.1083 23.454 62.735 23.7107 62.2963 23.888C61.8576 24.056 61.363 24.14 60.8123 24.14C60.3083 24.14 59.8416 24.056 59.4123 23.888C58.983 23.7107 58.6096 23.454 58.2923 23.118C57.9843 22.782 57.7416 22.3713 57.5643 21.886C57.387 21.4007 57.2983 20.8407 57.2983 20.206C57.2983 19.3753 57.4383 18.6707 57.7183 18.092C58.0076 17.5133 58.4183 17.0747 58.9503 16.776C59.4916 16.468 60.1263 16.314 60.8543 16.314C61.545 16.314 62.1516 16.468 62.6743 16.776C63.2063 17.0747 63.6216 17.5133 63.9203 18.092C64.2283 18.6707 64.3823 19.38 64.3823 20.22ZM58.8243 20.22C58.8243 20.78 58.8943 21.2653 59.0343 21.676C59.1743 22.0773 59.3936 22.3853 59.6923 22.6C59.991 22.8147 60.3736 22.922 60.8403 22.922C61.307 22.922 61.6896 22.8147 61.9883 22.6C62.287 22.3853 62.5063 22.0773 62.6463 21.676C62.7863 21.2653 62.8563 20.78 62.8563 20.22C62.8563 19.6413 62.7816 19.156 62.6323 18.764C62.4923 18.372 62.273 18.0733 61.9743 17.868C61.685 17.6533 61.3023 17.546 60.8263 17.546C60.1263 17.546 59.6176 17.7793 59.3003 18.246C58.983 18.7127 58.8243 19.3707 58.8243 20.22ZM74.7196 16.314C75.5689 16.314 76.2082 16.5333 76.6376 16.972C77.0669 17.4107 77.2816 18.1153 77.2816 19.086V24H75.7976V19.282C75.7976 18.7033 75.6809 18.2693 75.4476 17.98C75.2236 17.6813 74.8689 17.532 74.3836 17.532C73.7116 17.532 73.2309 17.742 72.9416 18.162C72.6522 18.5727 72.5076 19.17 72.5076 19.954V24H71.0376V19.282C71.0376 18.8993 70.9816 18.5773 70.8696 18.316C70.7669 18.0547 70.6129 17.8587 70.4076 17.728C70.2022 17.5973 69.9362 17.532 69.6096 17.532C69.1429 17.532 68.7742 17.6347 68.5036 17.84C68.2329 18.0453 68.0369 18.3487 67.9156 18.75C67.8036 19.142 67.7476 19.6227 67.7476 20.192V24H66.2636V16.454H67.4396L67.6496 17.462H67.7336C67.8922 17.2007 68.0836 16.986 68.3076 16.818C68.5409 16.65 68.7976 16.524 69.0776 16.44C69.3576 16.356 69.6469 16.314 69.9456 16.314C70.5149 16.314 70.9956 16.4167 71.3876 16.622C71.7796 16.818 72.0642 17.1213 72.2416 17.532H72.3536C72.5962 17.112 72.9322 16.804 73.3616 16.608C73.7909 16.412 74.2436 16.314 74.7196 16.314ZM85.9053 22.936C86.1013 22.936 86.302 22.9173 86.5073 22.88C86.7127 22.8427 86.89 22.8007 87.0393 22.754V23.874C86.8807 23.9487 86.666 24.0093 86.3953 24.056C86.1247 24.112 85.854 24.14 85.5833 24.14C85.1727 24.14 84.7947 24.07 84.4493 23.93C84.1133 23.79 83.8427 23.5473 83.6373 23.202C83.432 22.8567 83.3293 22.376 83.3293 21.76V17.588H82.2793V16.916L83.3853 16.356L83.9033 14.76H84.8133V16.454H86.9693V17.588H84.8133V21.732C84.8133 22.1427 84.9113 22.446 85.1073 22.642C85.3127 22.838 85.5787 22.936 85.9053 22.936ZM95.1987 20.22C95.1987 20.8453 95.1147 21.4007 94.9467 21.886C94.7787 22.3713 94.5407 22.782 94.2327 23.118C93.9247 23.454 93.5514 23.7107 93.1127 23.888C92.6741 24.056 92.1794 24.14 91.6287 24.14C91.1247 24.14 90.6581 24.056 90.2287 23.888C89.7994 23.7107 89.4261 23.454 89.1087 23.118C88.8007 22.782 88.5581 22.3713 88.3807 21.886C88.2034 21.4007 88.1147 20.8407 88.1147 20.206C88.1147 19.3753 88.2547 18.6707 88.5347 18.092C88.8241 17.5133 89.2347 17.0747 89.7667 16.776C90.3081 16.468 90.9427 16.314 91.6707 16.314C92.3614 16.314 92.9681 16.468 93.4907 16.776C94.0227 17.0747 94.4381 17.5133 94.7367 18.092C95.0447 18.6707 95.1987 19.38 95.1987 20.22ZM89.6407 20.22C89.6407 20.78 89.7107 21.2653 89.8507 21.676C89.9907 22.0773 90.2101 22.3853 90.5087 22.6C90.8074 22.8147 91.1901 22.922 91.6567 22.922C92.1234 22.922 92.5061 22.8147 92.8047 22.6C93.1034 22.3853 93.3227 22.0773 93.4627 21.676C93.6027 21.2653 93.6727 20.78 93.6727 20.22C93.6727 19.6413 93.5981 19.156 93.4487 18.764C93.3087 18.372 93.0894 18.0733 92.7907 17.868C92.5014 17.6533 92.1187 17.546 91.6427 17.546C90.9427 17.546 90.4341 17.7793 90.1167 18.246C89.7994 18.7127 89.6407 19.3707 89.6407 20.22ZM109.173 16.314C110.022 16.314 110.661 16.5333 111.091 16.972C111.52 17.4107 111.735 18.1153 111.735 19.086V24H110.251V19.282C110.251 18.7033 110.134 18.2693 109.901 17.98C109.677 17.6813 109.322 17.532 108.837 17.532C108.165 17.532 107.684 17.742 107.395 18.162C107.105 18.5727 106.961 19.17 106.961 19.954V24H105.491V19.282C105.491 18.8993 105.435 18.5773 105.323 18.316C105.22 18.0547 105.066 17.8587 104.861 17.728C104.655 17.5973 104.389 17.532 104.063 17.532C103.596 17.532 103.227 17.6347 102.957 17.84C102.686 18.0453 102.49 18.3487 102.369 18.75C102.257 19.142 102.201 19.6227 102.201 20.192V24H100.717V16.454H101.893L102.103 17.462H102.187C102.345 17.2007 102.537 16.986 102.761 16.818C102.994 16.65 103.251 16.524 103.531 16.44C103.811 16.356 104.1 16.314 104.399 16.314C104.968 16.314 105.449 16.4167 105.841 16.622C106.233 16.818 106.517 17.1213 106.695 17.532H106.807C107.049 17.112 107.385 16.804 107.815 16.608C108.244 16.412 108.697 16.314 109.173 16.314ZM116.932 16.314C117.884 16.314 118.593 16.524 119.06 16.944C119.526 17.3547 119.76 18.0033 119.76 18.89V24H118.71L118.416 22.95H118.36C118.145 23.2207 117.921 23.4447 117.688 23.622C117.464 23.7993 117.202 23.93 116.904 24.014C116.614 24.098 116.26 24.14 115.84 24.14C115.392 24.14 114.986 24.0607 114.622 23.902C114.267 23.734 113.987 23.482 113.782 23.146C113.576 22.8007 113.474 22.3713 113.474 21.858C113.474 21.0927 113.763 20.5093 114.342 20.108C114.93 19.7067 115.821 19.4873 117.016 19.45L118.304 19.408V18.988C118.304 18.428 118.178 18.036 117.926 17.812C117.674 17.588 117.319 17.476 116.862 17.476C116.47 17.476 116.096 17.532 115.742 17.644C115.387 17.756 115.051 17.8913 114.734 18.05L114.258 16.972C114.612 16.7853 115.018 16.6313 115.476 16.51C115.942 16.3793 116.428 16.314 116.932 16.314ZM117.282 20.402C116.423 20.4393 115.826 20.584 115.49 20.836C115.163 21.0787 115 21.424 115 21.872C115 22.264 115.116 22.5487 115.35 22.726C115.592 22.9033 115.896 22.992 116.26 22.992C116.848 22.992 117.333 22.8287 117.716 22.502C118.098 22.1753 118.29 21.6853 118.29 21.032V20.374L117.282 20.402ZM125.811 16.314C126.716 16.314 127.444 16.6407 127.995 17.294C128.555 17.9473 128.835 18.9227 128.835 20.22C128.835 21.0693 128.709 21.788 128.457 22.376C128.205 22.964 127.85 23.4073 127.393 23.706C126.935 23.9953 126.403 24.14 125.797 24.14C125.414 24.14 125.078 24.0933 124.789 24C124.499 23.8973 124.252 23.7667 124.047 23.608C123.851 23.44 123.678 23.2627 123.529 23.076H123.431C123.459 23.244 123.482 23.4447 123.501 23.678C123.519 23.902 123.529 24.1027 123.529 24.28V27.36H122.045V16.454H123.249L123.459 17.462H123.529C123.678 17.2567 123.855 17.0653 124.061 16.888C124.266 16.7107 124.513 16.5707 124.803 16.468C125.092 16.3653 125.428 16.314 125.811 16.314ZM125.461 17.532C124.994 17.532 124.621 17.6253 124.341 17.812C124.061 17.9893 123.855 18.26 123.725 18.624C123.603 18.9787 123.538 19.4313 123.529 19.982V20.206C123.529 20.7847 123.589 21.2793 123.711 21.69C123.832 22.0913 124.033 22.3993 124.313 22.614C124.602 22.8193 124.994 22.922 125.489 22.922C125.909 22.922 126.249 22.81 126.511 22.586C126.781 22.3527 126.982 22.0307 127.113 21.62C127.243 21.2093 127.309 20.7333 127.309 20.192C127.309 19.3707 127.159 18.722 126.861 18.246C126.562 17.77 126.095 17.532 125.461 17.532Z" fill="black"/>
</svg>
